<?xml version="1.0" encoding="utf-8"?>
<!-- Generator: Adobe Illustrator 19.2.0, SVG Export Plug-In . SVG Version: 6.00 Build 0)  -->
<svg version="1.1" id="Layer_1" xmlns="http://www.w3.org/2000/svg" xmlns:xlink="http://www.w3.org/1999/xlink" x="0px" y="0px"
	 viewBox="0 0 960 560" style="enable-background:new 0 0 960 560;" xml:space="preserve">
<style type="text/css">
	.st0{fill:#CCCCCC;stroke:#FFFFFF;stroke-width:0.5;}
</style>
<g>
	<path id="US-AL" class="st0" d="M676.4,346.7l0.8,2.7l0.8,2.7l0.8,2.7l0.8,2.7l0.8,2.7l0.8,2.7l0.8,2.7l0.8,2.7l0.8,2.7l0.8,2.7
		l0.8,2.7l0.8,2.7l0.8,2.7l0.8,2.7l0.8,2.7l0.8,2.7l0.6,1.2l0.6,2l3.3,5.6l1,2.4l-0.1,1.1l0.4,0.8l0.9,0.6l0,0.9l-1,1.1l-0.6,1.3
		l-0.3,2.1v0l-0.7,3.7l0.2,2.2l1.4,2.9l0,0l0.4,1.3l0,6l0.9,3.7l1.4,2.3l-5.9,0.7l-5.9,0.7l-5.9,0.7l-5.9,0.7l-5.9,0.6l-5.9,0.6
		l-5.9,0.6l-5.9,0.6l-0.1,1.6l0.3,1.5l0.8,1.3l2.9,2.4l0.3,0.6l-0.3,2.1l0.2,1.4l-0.2,0.8l-0.6,0.7l-0.1,0.7l-0.4,0.2l-1.8,2.4
		l-7.1,1.4l0.3-0.5l1.5-0.2l2-0.9l-0.5-1.1l-0.9-1.2l-0.8-0.1l-0.6-0.7l-0.2-2.4l-0.6-1.4l-1.3-1.3l-0.4,0.3l-0.6,2.5l-0.4,3.3
		l-0.3,1.1l-2.1,0.3l-1.9-0.1l-0.9,0.1l-0.6-4.4l-0.5-4l-0.5-4l-0.5-4l-0.5-4l-0.5-4l-0.5-4l-0.5-4l0.1-4l0.1-4l0.1-4l0.1-4l0.1-4
		l0.1-4l0.1-4l0.1-4l0.1-4l0.1-4l0.1-4l0.1-4l0.1-4l0.1-4l0.1-4l0.1-4l0-1l0-0.3l0-0.5l-1.7-1.3l-0.3-0.2l-0.2-0.2l0.2,0l2.8-0.2
		l2.8-0.2l2.8-0.2l2.8-0.2l2.8-0.2l2.8-0.2l2.8-0.2l2.8-0.2l2.8-0.2l2.8-0.3l2.8-0.3l2.8-0.3l2.8-0.3l2.8-0.3l2.8-0.3L676.4,346.7z
		 M642.5,452.2l-1.6,0.6l-2.4,0.2l-0.5-0.1l0.9-0.4l2.8-0.7L642.5,452.2z"/>
	<path id="US-AR" class="st0" d="M603.6,332l0,0.4l0.4,0.8l0,0.5l-0.2,0.3l-0.6,0.2l-0.4,0.2l-0.1,0.4l0,0.2l0.1,0.4l0.1,0.4
		l-0.2,0.5l-1.9,1.3l-0.7,1.6l0.4,1.8l-0.6,1.9l-1.6,2l-0.6,2.2l0.4,2.3l-0.7,2l-1.9,1.6l-0.6,0.9l0,0.1l0,0.7l0.2,0.5l-0.6,1
		l-1.6,1.1l-0.8,1l-0.1,1l-0.4,0.5l-0.7,0.3l-0.4,1.5l-0.2,3.4l-0.8,2l-1.4,0.6l-0.7,0.8l0,1l-0.8,1.2l-1.6,1.4l-0.5,1.3l0.6,1.2
		l-0.1,0.5l-0.5,0.4l-1.7,0.7l-0.3,0.3l-0.2,0.3l0.4,0.6l0.3,0.9l-0.2,1.6l-0.4,0.7l-0.4,0.7l-1.4,1.2l-0.4,0.9l0.7,0.6l0,0.7
		l-0.7,0.7l0.3,0.8l0.2,0.5l0.7,0.4l0.3,1.3l-0.4,1.7l0.2,1.4l0.9,1.1l0.2,0.5l-0.6,3.8l0.1,0.5l-3.5,0.2l-3.2,0.2l-3.2,0.2
		l-3.2,0.2l-3.2,0.1l-3.2,0.1l-3.2,0.1l-3.2,0.1l-3.2,0.1l-3.2,0.1l-3.2,0.1l-3.2,0.1l-3.2,0.1l-3.2,0.1l-3.2,0.1l-3.2,0.1l-0.1-2.9
		l-0.1-2.9l-0.1-2.9l-0.1-2.9l-0.9-0.5l-1.7-0.2l-0.8,0.2l-1-0.1l-0.7,0.5l-0.4,0.1l-0.4-0.1l-0.2-0.4l-0.7-0.3l-0.9-1l0-2.3l0-2.3
		l0-2.3l0-2.3l0-2.3l0-2.3l0-2.3l0-2.3l0-2.3l0-2.3l0-2.3l0-2.3l0-2.3l0-2.3l0-2.3l0-2.3l-0.4-3l-0.4-3l-0.4-3l-0.4-3l-0.4-3l-0.4-3
		l-0.4-3l-0.4-3l4.8-0.1l4.8-0.1l4.8-0.1l4.8-0.1l4.8-0.1l4.8-0.2l4.8-0.2l4.8-0.2l4.8-0.2l4.8-0.2l4.8-0.2l4.8-0.2l4.8-0.3l4.8-0.3
		l4.8-0.3l4.8-0.3l0.9,1.6l0.8,1l0.2,0.8l-0.1,0.8l-1.2,1.8l-1.1,0.9l-0.6,0.9l-0.8,0.9l-1.2,2.3l2.8-0.2l2.8-0.2l2.8-0.2L603.6,332
		z"/>
	<path id="US-AZ" class="st0" d="M272.9,298.5l-1.1,7.5l-1.1,7.5l-1.1,7.5l-1.1,7.5l-1.1,7.5l-1.1,7.5l-1.1,7.5l-1.1,7.5l-1.1,7.5
		l-1.1,7.5l-1.1,7.5l-1.1,7.5l-1.1,7.5l-1.1,7.5l-1.1,7.5l-1.1,7.5l-4.1-0.6l-6.4-0.9l-6.4-1l-6.4-1l-6.4-1l-6.4-1l-8.1-4.6l-8-4.6
		l-8-4.7l-7.9-4.7l-7.9-4.7l-7.9-4.8l-7.8-4.8L156,375l1.1-1l1.8-2.9l0.1-0.2l0,0l2.5,0.3l1.3-0.6l1-1.3l0.4-1.4l-0.1-1.6l-0.8-1.3
		l-1.6-1.1l-0.6-2.2l0.4-3.4l0.7-1.8l0.9-0.1l1-0.6l1.1-1.2l0.9-1.4l0.7-1.6l0.5-2l0.3-2.5l2.2-2.8l1.9-1.6l3.4-1.7l0.8-0.6l0.1-0.6
		l0-0.1l-0.4-0.9l-2.2-2.1l-0.9-1.4l0.1-1.1l0,0l-0.1-1.1l-1.9-4.8l-0.4-2.5l0.4-1.7l0-0.1l1.9-7.3l-0.4-2.8l0.1-1.5l0.7-1.7
		l0.1-1.1l-0.3-1.1l0.2-1.8l0.4-2.2l-0.5-1.6l0-0.7l0.7-1.4l0.9-0.6l1.4-0.3l1.5,0.1l1.6,0.5l1.1,0.9l0.6,1.3l0.7,0.8l0.8,0.2
		l1.3-0.7l1.4-1.9l0.3-0.1l1.8-9l1.7-8.2l5.2,1.1l5.2,1l5.2,1l5.2,1l5.2,1l5.2,1l5.2,0.9l5.2,0.9l5.3,0.9l5.3,0.9l5.3,0.9l5.3,0.8
		l5.3,0.8l5.3,0.8l5.3,0.8L272.9,298.5z"/>
	<path id="US-CA" class="st0" d="M117.8,158l-1,3.9l-1,3.9l-1,3.9l-1,3.9l-1,3.9l-1,3.9l-1,3.9l-1,3.8l-1,3.9l-1,3.8l-1,3.8l-1,3.8
		l-1,3.8l-1,3.8l-1,3.8l-1,3.8l2.9,4.4l2.9,4.4l2.9,4.4l2.9,4.4l2.9,4.3l3,4.3l3,4.3l3,4.3l2.3,3.6l2.3,3.6l2.3,3.6l2.3,3.6l2.4,3.6
		l2.4,3.6l2.4,3.6l2.4,3.6l3.3,5.1l3.3,5.1l3.4,5.1l3.4,5.1l3.4,5.1l3.4,5.1l3.5,5.1l3.7,5.4l-0.4,1.7l0.4,2.5l1.9,4.8l0.1,1.1l0,0
		l-0.1,1.1l0.9,1.4l2.3,2.2l0.4,0.9l0,0.1l-0.1,0.6l-0.8,0.6l-3.3,1.7l-1.9,1.6l-2.2,2.7l-0.3,2.5l-0.5,2l-0.7,1.6l-0.9,1.4
		l-1.1,1.2l-1,0.6l-0.9,0.1l-0.7,1.8l-0.4,3.4l0.6,2.3l1.6,1.1l0.8,1.3l0.1,1.6l-0.4,1.4l-1,1.3l-1.3,0.6l-2.5-0.3l0,0l-0.1,0.2
		l-2.1-0.2l-5.1-0.6l-5.2-0.6l-5.1-0.7l-5.1-0.7l-5.1-0.7l-5.1-0.7l-5.1-0.7l-5.1-0.7l0-0.1l0.4-2.3l-0.6-1l-1.2,0.2l0.2-3.1
		l0.6-1.3l0.2-1.4l-0.2-3.6l-1.6-4.7l-4.4-6.4l-2.4-2.4l-1.7-2.7l-1.3-0.9l-1.7-0.6l-0.8,0.8l-1.8-1.2l0.9-2.3l-1.1-3.8l-1.5-0.8
		l-4.1-0.8l-4.9-3.2l-1.3-1.5l0-2.1l-2.1-2.3l-2.9-2.5l-1.9-0.1l-2.3-0.9l-3.1-2.1l-1.9-0.7l-4-0.7l-1.4-0.6l-0.9-1.9l-1.2-1.1
		l0.8-1.7l0.3-1.7l0.6-1.2l0.1-3l1.2-2.5l-0.2-1.1l-0.6-0.9l-2.2-1.8l-0.1-1.5l0.9-1.7l-0.3-1.4l-1.7-1.7l-1.2-3.1l-2-2.1l-0.3-2.7
		l-1.1-1.9l-0.1-1.4l-2-5.6l-2.5-4.6l0.1-2.2l0.7-2.9l1.9-1.3L59,258l0.3-1.4l0.1-1.1l-0.7-2.1l-4.3-2.4l-2.5-5.6l0.8-3.4l-0.4-3.9
		l0.7-2.2l0.5-2.5l1.3-0.2l0.9,0.5l-0.4,0.9l-0.2,1.8l0.8,1.7l0.9,0.9l0.6,1.6l0.7,0.6l0.8,0.3l-0.2-0.9l-0.3-0.7l0-1.8l-0.4-2.5
		l-0.8-1.5l0-2.3l-0.4-0.7l-0.1-0.9l1.4-0.6l1.8-0.2l2.2,0.4l5.9,2.1l1.4-0.2l1,0.5l0.8,0.2l-1.5-1l-1-0.1l-1-0.4l-2.2-0.5l-0.8-0.5
		l-0.7-1l-0.6-0.2l-2.3,0.6l-0.8-0.4l-1.7-1.9l-0.9-0.4l-1.7,0.3l-1.1,3.1l-0.3,2.5l-0.9,0l-0.7-1.3l-1.4-1l-1-1.3l-1.3-2.2
		l-0.8-0.9l-1.5,1l0.2-0.6l1-1.4l0.7-2.7l1,2.6l0-1.6l-0.8-2l-0.8-0.9l-0.3-3.3l-2.1-2.6l-1.3-3.5l-2.9-6.1l1-4.2l0.1-5.7l1.6-2.8
		l0.6-2.1l0.2-3.4l-0.3-2l-2-5.8l-2.3-4.3l0.3-2.6l0.6-2.5l1.4-1.9l1.4-2.1l0.7-0.5l0.1,0.3l-0.3,0.4l0.4,0.3l0.5-0.9l0.4-0.4
		l-0.5-0.2l0.2-0.3l0.5-0.5l2-2.7l1.1-3.8l2.6-4.3l0.4-1.5l0.4-3.5l-0.1-2.2l-0.8-1.8l1.2-1.9l0.6-2l-0.1-0.4l4.1,1.3l4,1.3l4,1.3
		l4,1.2l4,1.2l4,1.2l4,1.2l4,1.2l4,1.2l4,1.2l4,1.2l4,1.1l4,1.1l4,1.1l4,1.1L117.8,158z M75.8,321.3l3.2,2h2l0.2,0.6l-0.3,0.4
		l-4.5-0.3l-1.2-0.9l0.1-0.8l-0.2-0.9L75.8,321.3z M68.2,320.5l-0.9-0.2l-1.3-0.6l0.6-0.3l0.9-0.1l0.2,0.3L68.2,320.5z M72.1,323.9
		l-1.3,0l-0.8-0.5l-0.9-2.4l3.2,0.6l1.1,1.2l0.1,0.3L72.1,323.9z M98.5,342.5l0.5,1.7l-1.2-0.5l-1.3-0.2l-0.2-0.9l-0.1-1.3L96,341
		l-0.9-0.3l0-0.1l0-0.6l0.3-0.2l2.5,2L98.5,342.5z M78.7,341.2l-0.8-0.2l-1-0.5l-0.2-1.3l0.9,0.2l0.8,0.4l0.4,1L78.7,341.2z
		 M95.6,354.1l-1.1-0.1l-1-0.7l-0.5-2.2l-0.7-1.8l0.7-0.3l0.5,1.7l1.6,2.8L95.6,354.1z"/>
	<path id="US-CO" class="st0" d="M396.3,247.4l-0.3,4l-0.2,4l-0.3,4l-0.2,4l-0.2,4l-0.2,4l-0.3,4l-0.2,4l-0.2,4l-0.3,4l-0.2,4
		l-0.2,4l-0.3,4l-0.2,4l-0.2,4l-0.2,4l-4.2-0.3l-4.2-0.3l-4.2-0.3l-4.2-0.3l-6.4-0.5l-6.4-0.5l-6.4-0.6l-6.4-0.6l-6.4-0.6l-6.4-0.6
		l-6.4-0.7l-6.4-0.7l-6.4-0.7l-6.4-0.8l-6.4-0.8l-6.4-0.8l-6.4-0.8l-6.4-0.9l-6.4-0.9l-6.4-0.9l0.8-5.3l0.8-5.3l0.8-5.3l0.8-5.3
		l0.8-5.3l0.8-5.3l0.8-5.3l0.8-5.3l0.8-5.3l0.8-5.3l0.8-5.3l0.8-5.3l0.8-5.3l0.8-5.3l0.8-5.3l0.8-5.3l5,0.7l5,0.7l5,0.7l5,0.7l5,0.6
		l5,0.6l5,0.6l5,0.6l5,0.6l5,0.6l5,0.5l5,0.5l5,0.5l5,0.5l5,0.5l5,0.5l4,0.3l4,0.3l4,0.3l4,0.3l4,0.3l4,0.3l4,0.3l4,0.3l-0.2,2.7
		l-0.2,2.7l-0.2,2.7l-0.2,2.7l-0.2,2.7l-0.2,2.7l-0.2,2.7L396.3,247.4z"/>
	<path id="US-CT" class="st0" d="M874.8,157l0.3,1.1l0.4,1.5l0.3,1.1l0.4,1.5l0.5,1.8l0.5,1.6l0.4,1.4l0.2,0.9l0.3,1.3l-0.3,0.6
		l0.1,1.2l-1.4,0.3l-2.1,0.9l-2.8,1.5l-1.8,0l-1.5,1.2l-5.7,1.7l-1.3-0.1l-1.2,1.8l-2.2,1.5l-5.4,4.8l-0.6,0.8l-1.1-1.1l-0.9-0.9
		l1.1-1.1l0.8-0.9l0.8-0.8l0.5-0.5l-0.7-0.7l-0.7-0.7l-0.4-2l-0.4-2l-0.4-2l-0.4-2l-0.4-2l-0.4-2l-0.4-2l-0.4-2l1.3-0.3l1.3-0.3
		l1.3-0.3l1.3-0.3l1.3-0.3l1.3-0.3l1.3-0.3l1.3-0.3l0.2,0.5l0.6-0.2l0-0.5l1.8-0.4l1.8-0.5l1.8-0.5l1.8-0.5l1.8-0.5l1.8-0.5l1.8-0.5
		l1.8-0.5L874.8,157z"/>
	<path id="US-DC" class="st0" d="M807.9,241.5l-0.5-0.5l-0.9-0.3l-0.4-0.1l1-1.7l1.1,1.1l1.2,1.1l-1.1,2L807.9,241.5z"/>
	<path id="US-DE" class="st0" d="M829.6,216.5l-0.5,0.9l-0.3,1.5l-1,1.9l0.3,1l0.4,0.7l0.2,1.6l1.2,1.3l2.3,2.1l1.2,3.8l1.9,2.3
		l2.7,2.6l1.8,0.5l0.3,1.1l-0.3,2l-0.8,1.1l1.2-0.5l0.7,0.3l1,1.4l0.2,1l-1.7,0.4l-3.6,0.8l-3.6,0.8l-1.6,0.4l0,0l0,0l0,0h0l0,0l0,0
		l0,0l0,0l-0.9-3.3l-0.9-3.2l-0.9-3.3l-0.9-3.2l-0.9-3.3l-0.9-3.3l-0.9-3.2l-0.9-3.3l0.8-1.9l0.4-0.6l0.6-0.4l2-0.5L829.6,216.5z"/>
	<path id="US-FL" class="st0" d="M762.4,426.9l1.2,1.8l2.6,7.6l1.3,2.6l2.8,7.1l3.9,6.7l5.2,8l8.1,9.4l1,1.4l-0.6,1.4l0,1.4l0.3,2
		l0.6,1.9l1.2,2.2l2.1,3.4l-0.9-0.6l-3-4.8l-0.8-3l-0.4-4.4l-0.5,0.2l-0.2,1.5l0.1,1.7l-0.4,0.7l-1.1-2.4l-0.1-1.1l0.5-1.5l-0.3-0.4
		l-1.3-0.5l-0.4-1l0-1.1l-0.8-0.4l-0.5,0.1l0.8,2.5l0.9,1.5l1.4,3.7l1.6,2.1l1,1.8l11.6,19.4l2.4,2.3l1,1.8l1.4,3.8l1.1,5.1l0.3,9.6
		l0.8,6.4l-0.2-0.2l-0.2-0.7l-0.3,0l-0.7,3.1l-1.1,2.9l0.2,4.2l-0.4,2.2l-1.9,2.6l-1.4,0.2l-3.2,2.2l-2.5,0l-2.8,1.4l-2,0.2
		l-1.4-1.8l0-0.9l0.3-0.9l0.7-0.3l2.9,1.6l0.3-0.9l-1-0.9l-1.6-0.3l-1.2-0.4l-3-4.3l-2.8-2.8l-0.7-2.1l-4.2-0.7l-3.2-1.5l-2.4-3.2
		l-2-6l-1.4-0.5l-0.6-0.4l0.9-2.5l1-2.1l-0.9,0.6l-0.6,0.8l-0.7,1.9l-0.7,0.4l-0.7-0.2l-1.2-3.1l-0.4-4l0.8-1.7l-1.6,0.2l-1.6,0.8
		l0.4,1.3l-0.1,0.8l-1.2,0l-1-0.3l-1.4-1.2l-2.1-2.4l-4.5-6.8l-0.8-0.9l-1.3-0.9l0.5-0.4l0.9-0.3l1.7-3.6l1.4-2.2l0.4-1.5l-0.2-0.6
		l-0.9-0.7l-0.9,0.9l-0.5-0.2l-1.4-1.6l-1.1-0.3l-0.7,0.5l1,1.3l0.8,0.4l0,2.1l-0.2,0.7l-0.6,0.7l-1.1-0.2l-0.4,0.6l-0.7-0.4
		l-0.7-0.8l-0.9-1.4l0.6-8.6l0.9-5.6l-0.7-6.1l0-0.9l-0.4-1.6l-2.7-3.2l-11-7.1l-8.9-9.1l-7-2.9l-4.8,1.5l-0.8,0.9l-0.2,1l0.5,1.1
		l-0.4,0.5l-1.3,0.1l-1.8,0.5l-4.3,3.2l-1.7,0.1l-1.4,0.9l-1.1,0.7l-2.9,0.6l-2.4,0.9l-1.1-0.2l-0.9-1.5l-0.2-1.6l0.7,1.2l1,0.9
		l0.4-0.4l0-0.9l-1.1-1.6l-3.1-1.8l-3.6-2.8l1,0l0.2-0.7l-1.1-0.8l0.3-1.1l0.6-1.1l-1.3,0.3l-1.1,0.9l0.1,0.9l-0.2,0.8l-0.7,0
		l-1.3-0.8l-6.2-1.9l-5.3-0.9l3.9-1.1l2.2,0.3l-0.3-0.7l-0.6-0.4l-1.8-0.4l-2.1,0.5l-1.4-0.1l-1.3,0.8l-1.4,1.1l-1.3,0.6l-5.3,1.2
		l-4.3,1.1l0.6-0.8l0.7-0.6l2.5-1l0.2-1.6l-0.7-1.4l-0.6,0.4l-0.6,1.2l-0.9-0.7l-1,0.1l-0.1,1.8l-1.1,1.3l-0.4,1.3l-3.5,1.3
		l-0.5-0.3l0.9-1.3l-0.1-0.6l-0.7,0.4l0.1-0.7l0.6-0.7l0.2-0.8l-0.2-1.4l0.3-2.1l-0.3-0.6l-2.9-2.4l-0.8-1.3l-0.3-1.5l0.1-1.6
		l5.9-0.6l5.9-0.6l5.9-0.6l5.9-0.6l5.9-0.7l5.9-0.7l5.9-0.7l5.9-0.7l1,1.6l1.9,3.3l0.2,0.8l1.7-0.1l3-0.2l3-0.2l3-0.2l3-0.2l3-0.2
		l3-0.2l3-0.2l3-0.2l3-0.2l3-0.2l3-0.2l3-0.2l3-0.2l3-0.2l3-0.2l3-0.2l0.1,0.7l0.7,1l0.3,1.2l0.3,0.6l0.6,0.3l0.9,0l0.8-0.9l0.3-1.6
		l-0.1-1.8l-0.7-1.9l-0.2-1.7l0.3-1.1l0.5-0.3l0.4-0.6l0.4-0.2l1.1,0.1l4,0.8L762.4,426.9z M702.8,459l-1.8,1l-2.1-0.3l1.2-0.3
		l0.9,0.1l2.2-1.4l1.1-1l1.4-0.5L702.8,459z M799.4,496.2l0.6,1.5l-2.4-3.3l-3.2-5.3l-1.9-4.2l1,1.1l1.2,2.3L799.4,496.2z
		 M765.5,517.7l0.2,1.3l-1.3-2l-1-2.2l1,0.6L765.5,517.7z M766.8,519.7l-0.6,0.7l-1.5-0.2l-0.9-0.6l-0.5-1.4l1.4,1.3l0.5,0.3
		L766.8,519.7z M803.6,542.6l-3.2,4.7l0.3-1.1l1.1-2.4l0.3-1.1l0.9-0.8l0.8-1.3l-0.2-1.4l1.2-1.2l0.4-0.2L803.6,542.6z M799.4,548.6
		l-0.5,0.2l0.6-1.1l0.2,0L799.4,548.6z M796,551.4l-0.4,0.1l0.1-0.3l0.7-0.7l0.3,0.2l0,0.3L796,551.4z M792.1,554l-0.8,0.7l-1-0.2
		l0.9-0.7l3-1.1l-1,0.9L792.1,554z M786.6,556.3l-0.5,0.5l-0.3-0.1l-0.1-0.7l-1.1-1.3l0-0.4l2.2,1.1l0.1,0.4L786.6,556.3z
		 M782.2,558.2l-1.2,0.4l0.9-1l0.1-1.3l0.8,0.9l0.1,0.6L782.2,558.2z M778.1,560.1l-0.5,0.1l-0.1-0.3l0.8-0.5l0.6-0.1l0,0.5
		L778.1,560.1z"/>
	<path id="US-GA" class="st0" d="M769.3,397.6l-0.6,1.9l-2,1.5l-0.7,0.1l-0.5,0.4l0.4,0.7l0.6,0.5l0.1,0.5l-0.5,0.8l-1.1,0.4
		l-0.5,0.9l0.3,0.8l0.4,0.4l0,0.8l-1.2,1l-0.2,0.8l0.7,0.1l0.5-0.3l0.4,0.1l-0.6,1.4l-0.6,0.9l-0.4,1.5l-1.5,0.6l0.1,0.4l0.9,0.2
		l0.9,0.9l-1.1,2.2l-0.9,0l-0.6-0.3l-0.1,1.6l0.3,0.8l-0.1,1.7l-0.2,2.1l-0.2,0.9l0.3,1.5l0.5,1.5l-3.1,0.3l-4-0.8l-1.1-0.1
		l-0.4,0.2l-0.4,0.6l-0.5,0.3l-0.3,1.1l0.2,1.7l0.7,1.9l0.1,1.8l-0.3,1.6l-0.8,0.9l-0.9,0l-0.6-0.3l-0.3-0.6l-0.3-1.2l-0.7-1
		l-0.1-0.7l-3,0.2l-3,0.2l-3,0.2l-3,0.2l-3,0.2l-3,0.2l-3,0.2l-3,0.2l-3,0.2l-3,0.2l-3,0.2l-3,0.2l-3,0.2l-3,0.2l-3,0.2l-3,0.2
		l-1.7,0.1l-0.2-0.8l-1.9-3.3l-1-1.6l-1.4-2.3l-0.9-3.7l0-6l-0.4-1.3l0,0l-1.4-2.9l-0.2-2.2l0.7-3.7v0l0.3-2.1l0.6-1.3l1-1.1l0-0.9
		l-0.9-0.6l-0.4-0.8l0.1-1.1l-1-2.4l-3.3-5.6l-0.6-2l-0.6-1.2l-0.8-2.7l-0.8-2.7l-0.8-2.7l-0.8-2.7l-0.8-2.7l-0.8-2.7l-0.8-2.7
		l-0.8-2.7l-0.8-2.7l-0.8-2.7l-0.8-2.7l-0.8-2.7l-0.8-2.7l-0.8-2.7l-0.8-2.7l-0.8-2.7l5.7-0.6l5.7-0.6l5.7-0.6l5.7-0.7l5.3-0.8
		l5.2-0.8l5.2-0.8l5.2-0.8l-0.1,0l-0.7,1.6l-2.2,3l-0.4,2.2l3.6,1.8l0,0l2.2,1.6l1.5,0.5l1.4,0l0.9,0.5l0.7,1.4l0,0l5.1,6.8l0,0
		l4.7,3.2l2,1.6l1.1,1.7l4,2.4l1.5,1.4l0.2,1.2l0.6,0.8l0.9,0.4l0.9,1l1,1.6l1.7,1.2l2.3,0.9l2,2.6l1.7,4.2l1.4,2.4l1.7,0.8l2.7,3.4
		l1.1,2.1l0.3,2l1.3,1.3L769.3,397.6z M763.1,421.6l0,5.3l-0.7-1.8l-0.3-1.8l0.4-1.1L763.1,421.6z"/>
	<path id="US-IA" class="st0" d="M579.1,194.7l1,1.4l1.7,1.2l1,1.2l0.3,1.1l1.1,1.2l1.9,1.2l1.1,1.1l0.4,1l0,1.5l-0.2,2.1l-0.6,1.5
		l-0.9,1l-0.6,1.3l-0.4,1.7l-1.3,1.6l-2.3,1.5l-2.6,1.1l-2.9,0.7l-1.7,1.3l-0.4,1.9l0.3,1.6l1.1,1.2l0.7,1.3l0.2,1.4l-0.6,2.4
		l-1.5,3.4l-1.7,2.2l-2,1.1l-0.8,1.5l0.3,1.9l-0.1,1.1l-0.8,0.4l-1.5-1.1l-0.3-0.8l-1.2-0.7l-0.2-0.5l-0.9-0.4l-0.9-1.5l-4.1,0.2
		l-4.1,0.2l-4.1,0.2l-4.1,0.2l-4.1,0.2l-4.1,0.2l-4.1,0.2l-4.1,0.1l-4.1,0.1l-4.1,0.1l-4.1,0.1l-4.1,0.1l-4.1,0.1l-4.1,0.1l-4.1,0.1
		l-4,0l-1-1.6l-0.5-1.5l0.3-0.7l0.1-2.4l-0.2-4.1l-0.4-2.3l-0.6-0.5l-0.1-0.7l0.4-0.9l-0.1-0.6l-0.7-0.3l-0.2-0.8l0.3-1.2l-0.2-0.8
		l-0.6-0.3l-0.2-0.4l0.1-0.6l-0.3-0.4l-0.8-0.2l-0.3-1.4l0.1-2.6l-0.3-1.9l-0.7-1.1l-0.4-1l0-1l-0.7-1.5l-1.5-2.1l-1-2.7l-0.4-3.4
		l-1.1-1.9l-0.5-0.1l-0.4-1.8l-0.4-0.8l-0.1-0.6l-1.3-1.5l-0.1-0.6l0.2-0.7l0.9-1.4l0.8-2.4l0.2-1.6l0.6-1.2l0-0.7l-0.1-0.9
		l-0.3-0.8l-1-0.6l-0.1-0.2l-0.1-0.9l0.4-0.5l0.1-0.6l-0.1-0.8l-0.6-1.3l-0.3-1.3l2.3-0.1l5.1,0h5.1l5.1,0l5.1,0l5.1-0.1l5.1-0.1
		l5.1-0.1l5.1-0.1l5.1-0.1l5.1-0.1l5.1-0.2l5.1-0.2l5-0.2l5.1-0.2l5-0.2l5.1-0.3l0.2,1.3l0.4,0.9l0.7,0.7l1,0.5l0.2,1.1l-0.5,1.7
		l-0.1,2.1l0.3,2.5l0.6,2.2l0.9,2l1.8,1.3l2.7,0.8l1.7,1.3l0.6,1.9L579.1,194.7z"/>
	<path id="US-ID" class="st0" d="M265.5,135.7l-0.5,3.3l-0.6,3.3l-0.5,3.3l-0.5,3.3l-0.6,3.3l-0.5,3.3l-0.5,3.3l-0.6,3.3l-0.5,3.3
		l-0.5,3.3l-0.6,3.3l-0.5,3.3l-0.5,3.3l-0.5,3.3l-0.5,3.3l-0.6,3.3l-2.9-0.5l-2.9-0.5l-2.9-0.5l-2.9-0.5l-2.9-0.5l-2.9-0.5l-2.9-0.5
		l-2.9-0.5l-2.9-0.5l-2.9-0.5l-2.9-0.6l-2.9-0.6l-2.9-0.6l-2.9-0.6l-2.9-0.6l-2.9-0.6l-5.8-1.2l-5.8-1.2l-5.8-1.2l-5.8-1.2l-5.8-1.3
		l-5.8-1.3l-5.8-1.3l-5.8-1.3l1.1-4.6l1.1-4.6l1.1-4.6l1.1-4.6l1.1-4.6l1.1-4.6l1.1-4.6l1.2-5.1l0-0.1l1.7-2.9l0.6-1.5l0-0.9
		l0.4-0.8l0.8-0.7l0.2-0.9l-0.4-1.1l-1-0.9l-1.6-0.7l-0.6-1.3l0.4-1.9l1.9-2.7l3.5-3.4l2-2.5l0.6-1.6l2.4-3.5l4.2-5.4l1.9-3.6
		l-0.3-1.8l-1-1.9l-1.8-2l-1.1-2.1l-0.2-1l-0.2-1.2l0.1-1.5l0.6-0.7l0-1.5l-0.5-2.3l-0.1-1.5l0.2-0.5l0.2-0.2l0.8-3.4l0.8-3.3
		l0.8-3.4l0.8-3.4l0.8-3.4l0.8-3.4l0.8-3.4l0.8-3.4l0.8-3.4l0.8-3.4l0.8-3.4l0.8-3.4l0.8-3.4l0.8-3.4L197,27l0.8-3.4l4.5,1l5.9,1.4
		l3.4,0.8l-1.2,5.2l-1.2,5.2l-1.2,5.2l-1.2,5.2l1.1,2.5l0.8,1.6l0.4,1.6l0.8,1.7l0.1,0.6l0,1.7l-0.5,1.1l0.3,1.3l-0.2,0.6l-0.5,0.2
		l-0.1,0.1l0,0.1l0.1,0.2l1.3,1.4l1.2,1.9l1.7,1.5l0.5,0.8l1.9,3.6l0.9,2.2l1.1,1.7l0.4,1.8l1.2,1.7l0.2,0.8l0.1,0.2l0.2,0.1l1-0.2
		l0.2,0.1l0.3,0.7l-0.1,0.9l0.3,0.4l0.5,0.3l0.6,0.2l2.1,0l0.4,0.1l0.2,0.2v0.5l-0.2,0.8l-0.4,1l-0.8,0.9l-0.1,1l-0.9,2.2l-0.8,1.4
		l-0.3,1.5l-0.7,0.7l0.1,1.1l-0.5,1.5l0.1,0.4l0.6,0.9l-0.1,2l-0.2,0.3l-1.4,0.5l-0.5,0.4l-0.3,0.7l0.1,2.1l-0.8,1l-0.3,0.9l0.1,0.3
		l1.1,0.8l1.2,1.4l0.4,0.3l0.3,0l0.7-0.3l0.8-0.6l1.5-0.5l2-1.3l0.2-0.4l0.2-0.2l0.2,0.1l0.5,0.3l0.8,1.2l0.8,0.7l0.1,0.2l0,0.3
		l-0.2,1l0.3,0.9l-0.1,1.3l0.2,1.4l0.1,1.6l0.9,2.3l0.4,1.6l0.7,0.8l0.3,0.9l0.2,1l0,0.8l-0.7,1.3l0,0.6l0.3,0.7l1.1,1.7l0.2,0.2
		l1.3,0.1l0.7,0.4l0.6,0.8l0.5,1.2l0.3,1.1l-0.1,1.3l0.5,1.5l-0.1,1.3l0.3,0.6l0.8,0.9l0.8,0.6l0.3,0.1l0.3-0.1l0.2-0.7l0.4-0.5
		l1.2-0.5l1,0.2l3.7,1.3l0.3,0l0.2-0.2l0.9-1l0.6-0.3l0.8,0l2.3,0.7l2.8,0.3l1.4,0.6l2.2-0.1l2.3,0.7l0.3-0.1l0.1-0.2l-0.1-0.5
		l0.1-0.8l0.7-0.9l0.3-0.8l0.6-0.4l0.7-0.2l0.5,0.1l0.4,0.5l0.4,0.9l0.7,2.2l0.4,0.8l0.6,0.8L265.5,135.7z"/>
	<path id="US-IL" class="st0" d="M623.8,191.7l0.3,3.3l0.5,2.7l0.6,1.2l0.6,0.9l0.7,0.5l0.9,1.7l1.1,2.9l0.9,1.9l0.6,0.8l0.5,5.7
		l0.6,6.4l0.6,6.4l0.6,6.4l0.6,6.4l0.6,6.3l0.6,6.4l0.5,6v0.1l-0.7,0.7l-0.4,1.2l0.2,1.2l-0.1,0.9l-0.5,0.6l0.4,1.3l1.2,2l0.8,2
		l0.4,2l-0.1,1.5l-0.8,1.4l-0.6,3l-0.6,1.2l-0.9,0.5l-0.7,1.1l-0.6,1.8l-0.7,0.9l-0.8,0l-0.6,0.4l-0.3,0.7l0.1,0.7l0.6,0.7l-0.1,0.7
		l-0.7,0.7l0,0.3l0.3,0.2l-0.1,0.3l-0.5,0.4l-0.2,1l0.2,1.6l-0.2,0.8l-0.5,0.1l0,0.4l1.1,1.8l-0.5,0.4l-0.8,1.6l0,1.7l0.7,1.8
		l-1.3,1.6l-3.3,1.4l-1.7,1.1l-0.1,0.9l0.3,1.3l0.8,1.7l0.2,1.2l-0.4,0.7l-2.5-0.3l-4.5-1.3l-2.9,0.3l-1.4,1.8l-0.4,1.3l0.3,1
		l-1.3-1.2l-0.8-0.5l-0.2,0.1l-0.2,0.2l0,0.4l0.1,0.3l0.2,0.3l-0.1,0.2l-0.2,0l-0.9-0.4l-1.2-1.3l-1.4-2.2l-0.4-1.8l0.6-1.4
		l-0.1-1.5l-0.8-1.5l-0.4-1.5l-0.1-1.5l-1.8-2.1l-3.6-2.7l-2.6-1.6l-1.6-0.6l-1.9-1.3l-2.2-2.1l-1.2-1.6l-0.2-1.2l0.8-3.2l2.3-7
		l0.3-0.8l0.1-0.3l-0.1-0.3l-0.3-0.3l-1.2-0.7l-2.3-0.5l-2.1-0.3l-1.6,0.9l-1.5-1.6l-1.5-4.1l-3.3-4.2l-5-4.3l-2.9-3l-0.9-1.6
		l-0.8-2.4l-0.7-3.3l-0.1-2.7l0.8-3.3l0.8-0.4l0.1-1.1l-0.3-1.9l0.8-1.5l2-1.1l1.7-2.2l1.5-3.4l0.6-2.4l-0.2-1.4l-0.7-1.3l-1.1-1.2
		l-0.3-1.6l0.4-1.9l1.7-1.3l2.9-0.7l2.6-1.1l2.3-1.5l1.3-1.6l0.4-1.7l0.6-1.3l0.9-1l0.6-1.5l0.2-2.1l0-1.5l-0.4-1l-1.1-1.1l-1.9-1.2
		l-1.1-1.2l-0.3-1.1l-1-1.2l-1.7-1.2l-1-1.4l7.2-0.4l7.1-0.4l7.1-0.4l7.1-0.5l7.1-0.5l7.1-0.6L623.8,191.7z"/>
	<path id="US-IN" class="st0" d="M673.2,203.5l0.8,6.9l0.8,6.9l0.8,6.9l0.8,6.9l0.8,6.9l0.8,6.9l0.8,6.9l0.8,7l-0.2,0.2l-0.3,1
		l0.5,0.9l0.1,0.7l-0.4,0.6l0.2,0.4l0.8,0.2l0.4,0.6l-0.1,1.1l-1.5,1.3l-3,1.6l-0.6,0.4l-0.6,0.2l-0.3,0l0,0l-0.4-0.2l-0.6-0.4
		l-1-0.1l-1.6,0.3l-0.5,1.1l0.5,1.8l-0.4,1.5l-1.3,1.1l-0.9,1.4l-0.4,1.7l-0.9,1.1l-1.3,0.5l-0.9,1.6l-0.6,2.7l-0.7,1.7l-0.9,0.7
		l-1.4,0l-1.8-0.8l-1.1-0.9l-0.4-1l-0.6-0.7l-0.5-0.3l-0.3,0v0.2l0.2,0.3l-0.1,0.3l-1.1,0.2l-0.4,0.5l0.2,0.7l-0.2,0.5l-0.6,0.4
		l-0.3,0.7l0.1,1.1l-0.3,1l-0.8,1l-1.3-0.2l-1.8-1.3l-1.7-0.2l-1.6,1l-1.1,1.2l-0.7,1.5l-0.8,0.4l-1.3-0.9L640,288l-1.5-0.2l-1,0.4
		l-0.7-0.1l-0.3-0.4l-0.2-0.1l-0.2,0.2l0.1,1.3l-0.2,0.8l-0.4,0.4l-0.4-0.2l-0.3-0.8l-0.6-0.2l-0.9,0.4l-0.9,0l-0.9-0.4l-0.3,0.1
		l-0.2,0.3l0.2,1l-0.1,0.8l-0.4,0.5l-0.6,0.2l-0.8-0.2l-0.3,0.3l-1.1-1.8l0-0.4l0.5-0.1l0.2-0.8l-0.2-1.6l0.2-1l0.5-0.4l0.1-0.3
		l-0.3-0.2l0-0.3l0.7-0.7l0.1-0.7l-0.6-0.7l-0.1-0.7l0.3-0.7l0.6-0.4l0.8,0l0.7-0.9l0.6-1.8l0.7-1.1l0.9-0.5l0.6-1.2l0.6-3l0.8-1.4
		l0.1-1.5l-0.4-2l-0.8-2l-1.2-2l-0.4-1.3l0.5-0.6l0.1-0.9l-0.2-1.2l0.4-1.2l0.7-0.7v-0.1l-0.5-6l-0.6-6.4l-0.6-6.3l-0.6-6.4
		l-0.6-6.4l-0.6-6.4l-0.6-6.4l-0.5-5.7l0.1,0.1l0.7,0.5l0.5,0.3l0.4,0l0.2,0.4l0.9,0.2l1.6,0l1.5-0.3l1.3-0.6l3.1-2.3l3.9-0.4
		l4.8-0.5l4.8-0.5l4.8-0.5l4.8-0.6l4.8-0.6l4.8-0.6L673.2,203.5z"/>
	<path id="US-KS" class="st0" d="M518.4,314.3l-3.9,0.1l-3.9,0l-3.9,0l-3.9,0l-3.9,0l-3.9,0l-3.9,0l-3.9,0l-3.9,0l-3.9,0l-3.9,0
		l-3.9,0l-3.9-0.1l-3.9-0.1l-3.9-0.1l-3.9-0.1l-3.9-0.1l-3.9-0.1l-3.9-0.1l-3.9-0.1l-3.9-0.1l-3.9-0.2l-3.9-0.2l-3.9-0.2l-3.9-0.2
		l-3.9-0.2l-3.9-0.2l-3.9-0.2l-3.9-0.2l-3.9-0.2l-3.9-0.2l-3.9-0.3l0.2-4l0.2-4l0.2-4l0.3-4l0.2-4l0.2-4l0.3-4l0.2-4l0.2-4l0.3-4
		l0.2-4l0.2-4l0.2-4l0.3-4l0.2-4l0.3-4l3.4,0.2l3.4,0.2l3.4,0.2l3.4,0.2l3.4,0.2l3.4,0.2l3.4,0.2l3.4,0.2l3.4,0.2l3.4,0.2l3.4,0.1
		l3.4,0.1l3.4,0.1l3.4,0.1l3.4,0.1l3.4,0.1l3.4,0.1l3.4,0.1l3.4,0.1l3.4,0.1l3.4,0.1l3.4,0.1l3.4,0l3.4,0l3.4,0l3.4,0l3.4,0l3.4,0
		l3.4,0l3.4,0l3.4,0l2.9,0l3.8,2.7l1,0l1.2-0.4l0.9,0.6l0.6,1.7l-0.1,0.9l-0.8,0l-1,1l-1.1,2l0.3,1.9l1.8,1.7l1.2,1.8l0.6,1.8
		l1.2,1.4l2.6,1.4l0,0.8l0,2.8l0,2.8l0,2.8l0,2.8l0,2.8l0,2.8l0,2.8l0,2.8l0,2.8l0.1,2.8l0,2.8l0,2.8l0,2.8l0,2.8l0,2.8L518.4,314.3
		z"/>
	<path id="US-KY" class="st0" d="M717.9,267.2l0.5,0.5l0.7,3.1l0,0.6l-0.4,1.4l0.1,0.7l0.6,1l2.1,2.2l0.3,0.9l0.8,0.8l0.8,1.3
		l2.3,2.7l3.3,2l2.4,0.3l-5.6,6.1l-2.6,2.3l-2.6,1.9l-0.2,0.3l-0.4,1.7l-1.5,1.7l-0.8,1.7l-2.3,1.6l-1.6,2l-4.3,2.4l-2.5,0.9
		l-1.6,1.2l-0.1,0.1l-0.1,0.1l-0.1,0.1l-0.1,0.1l-0.1,0.1l-0.1,0.1l-0.1,0.1l-0.1,0.1l-5.9,0.6l-5.9,0.6l-5.9,0.5l-5.9,0.5l-5.9,0.5
		l-5.9,0.5l-5.9,0.4l-5.9,0.4l-5.7,0.7l-5.7,0.7l-5.7,0.7l-5.7,0.6l-0.6-0.6l-1.5,0l-2.3,0h-0.1l0.9,2.1l0.2,1.9l0,0l-2.7,0.2
		l-3,0.2l-3,0.2l-3,0.2l-3,0.2l-3,0.2l-3,0.2l-3.4,0.2l0.8-1.9l0.8-0.6l0.3-0.1l0.9,0.3l0.4,0.1l0.9-0.7l0.7-2l0.3-2.1l0-2.1
		l-0.7-1.7l-0.3-1l0.4-1.3l1.4-1.8l2.9-0.3l4.5,1.2l2.5,0.3l0.4-0.7l-0.2-1.2l-0.8-1.7l-0.3-1.3l0.1-0.9l1.7-1.1l3.3-1.4l1.3-1.6
		l-0.7-1.8l0-1.7l0.8-1.6l0.5-0.4l0.3-0.3l0.8,0.2l0.6-0.2l0.4-0.5l0.1-0.8l-0.2-1l0.2-0.3l0.3-0.1l0.9,0.4l0.9,0l0.9-0.4l0.6,0.2
		l0.3,0.8l0.4,0.2l0.4-0.4l0.2-0.8l-0.1-1.3l0.2-0.2l0.2,0.2l0.3,0.4l0.7,0.1l1-0.4l1.5,0.2l2.9,1.2l1.3,0.9l0.8-0.4l0.7-1.5
		l1.1-1.2l1.6-1l1.7,0.2l1.8,1.3l1.3,0.2l0.8-1l0.3-1l-0.1-1.1l0.3-0.7l0.6-0.4l0.2-0.5l-0.2-0.7l0.4-0.5l1.1-0.2l0.1-0.3l-0.2-0.3
		v-0.1l0.3,0l0.5,0.3l0.6,0.7l0.4,1l1.1,0.9l1.8,0.8l1.4,0l0.9-0.7l0.7-1.7l0.6-2.7l0.9-1.6l1.3-0.5l0.9-1.1l0.4-1.7l0.9-1.4
		l1.3-1.1l0.4-1.5l-0.5-1.8l0.5-1.1l1.6-0.3l1,0.1l0.6,0.4l0.4,0.2l0,0l0.3,0l0.6-0.2l0.6-0.4l3-1.6l1.5-1.3l0.1-1.1l-0.4-0.6
		l-0.8-0.2l-0.2-0.4l0.4-0.6l-0.1-0.8l-0.5-0.9l0.3-1l0.2-0.2l0.8-0.8l1-0.2l0.9,0.6l1.1,0l1.4-0.5l1.3,0.1l1.3,0.7l1.3,1.4l1.3,2.2
		l2.1,1.2l2.8,0.2l2.1,0.6l1.4,1.1l1.1,0.3l1.1-0.9l1.2-0.5l1.3,0.2l1.9,0.9l2.5-0.6l3.1-2.1l2-0.2l0.8,1.7l1.7,1.6l2.5,1.6
		L717.9,267.2z M606.6,321.1l-1.2,0.1l-0.1-0.2l0-0.6l0.1-0.3l0.2-0.1l0.3,0l0.4,0.5L606.6,321.1z"/>
	<path id="US-LA" class="st0" d="M615.6,455.6l-1.2,0.7l-7-1.7l-1.8-1.7l-1.5-0.3l-1.9-0.1l-1.8,2.3l-1.3,3l2.5,1.5l2.1,0.6l3.3-0.9
		l1.8-1.6l1.5-0.1l0.7-0.3l0.6-0.8l1.3,0.5l0.1,0.6l-0.9,0.9l-1.1,0.8l-0.7,0.9l1.4,1.6l2.1,0.4l0.8-0.3l0.4-1.9l1.2-1.3l1.8,0.1
		l-0.2,0.8l0.3,0.7l0.9,1.2l0,1.8l0.2,0.4l-1.8,0.9l-1.4,0.4l-1.1,1.1l0.6,0.5l-1.1,0.6l-0.8-0.2l-0.4,0.2l-0.1,0.6l-0.6,0.6l1,1.7
		l1.9,1l1.3,1.3l5.2,1.5l1.2-0.1l1.3,1.8l1,0.6l1,0.3l0,1.3l-1.6,1.1l-0.4,1.2l-0.4,0.7l-0.8-0.7l-0.8-0.5l-1.7,1.9l-0.8,0.4
		l0.3-1.9l-0.7-0.7l-1.2-1.8l-1.6-1.1l-1.1-0.3l-0.9-0.7l-1-0.2l-0.8,0.1l-1.4-0.3l-0.2-1l-0.4-0.7l-1.2-0.8l-5.4-1.3l0,0.7l0.4,0.5
		l0.8,0.3l1,0.6l0.1,2l-0.3,0.9l-0.1,1.2l-0.3,1.3l-0.6,1l-1.4,0.8l-0.7-0.5l-1.2-2.6l-1.5-0.8l-2.3,0l-1.5,0.7l-1.6,2.7l-1.4,0.5
		l-4.8-1.1l-5.5-1.8l0.1-0.7l0.8-0.3l1.6,0.2l-0.1-0.7l-1.8-2.2l-0.4-1l0.2-1.3l-0.5,0.1l-0.9,1.1l-3.5-0.7l-1-1l-2.2-2.9l-2.9,0
		l-1.4-1.8l-2.3,0.9l-1.1,0.9l-1,1.4l0.4,0.7l1.1,1l-0.4,0.5l-3.3,0.9l-7.8-0.6l-2.3-0.7l-3.1-1.6l-4.2-1.3l-2-0.2l-2,0.3l-5.7,0.3
		l-1.3,0.4l-1.1,0.6l-0.8-0.6l-0.4-1.2l0.7-0.2l0.7-0.7l0.6-1.4l0.1-0.8l-0.5-0.5l1.2-2.2l0.3-0.8l-0.3-3.6l-0.6-1.3l0-0.8l0.5-2
		l-0.1-1.8l1-2.2l0.7-1.2l0.8-2.4l0.2-1.5l0.3-1.1l-0.3-1.2l0.6-0.9l-0.4-1.2l-0.2-1.6l-0.7-0.6l-1.3-2.4l0-1.1l-1.4-2.2l0-0.8
		l-1.3-1.1l-0.3-0.7l-0.2-3.1l-0.4-0.9l-1.1-1.8l-2.6-2.6l-0.1-2.7l-0.1-2.7l-0.1-2.7l-0.1-2.7l-0.1-2.7l-0.1-2.7l-0.1-2.7l-0.1-2.7
		l3.2-0.1l3.2-0.1l3.2-0.1l3.2-0.1l3.2-0.1l3.2-0.1l3.2-0.1l3.2-0.1l3.2-0.1l3.2-0.1l3.2-0.1l3.2-0.1l3.2-0.2l3.2-0.2l3.2-0.2
		l3.5-0.2l0.2,1l0.9,0.6l0.1,1.1l-0.7,1.7l0.1,1.1l0.8,0.6v0.7l-0.8,0.8l-0.1,0.8l0.7,0.8l0.3,0.9v1.1l0.9,1.4l1.3,0.8l0.9,1
		l0.1,0.6l0.1,0.5l-0.1,0.8l-1,1.2l-0.7,0.9l-0.5,0.3l-0.2,0.6v1.3l-1.1,1.7l-2.3,2l-1.4,2.4l-0.6,2.9l-0.7,1.9l-0.8,0.8l-0.4,1.5
		l0.1,2.2l-0.5,1.3l-1.1,0.3l-0.2,1.3l0.7,2.3l-0.2,1l-0.7,0.8l0,0.6l4.4-0.2l4.4-0.2l4.4-0.2l4.4-0.2l4.4-0.3l4.4-0.3l4.4-0.3
		l4.4-0.3l-0.4,2.5l-1.1,3.4l0,0.9l0.4,1.1l0,0.6l0.5,0.9l1.1,0.8l1,1.3l1,2.4l0.3,1.1l0.8,1.5l0.4,0.3l0.5,0.1L615.6,455.6z
		 M621.3,457.5l0.1,1l-0.9-0.4l-1.4,0.1l0.6-0.4l0.4-0.4l0.2-0.4l1.6-1.4l-0.4,0.9L621.3,457.5z M629.2,462.9l-0.5,0.7l0.3-3.3
		l-0.9-2.7l0.9,1.1l0.4,1.4L629.2,462.9z M628.2,465l-0.9,1.2l0-0.4l0.7-1.2l0.5-0.5L628.2,465z M574,472.9l-0.7,0.3l-3.2-1.7
		l-0.2-0.8l1.5-0.8l0.9,0l1.5,0.9l0.6,0.2l0.3,0.4l-0.1,0.6L574,472.9z"/>
	<path id="US-MA" class="st0" d="M885,135l0,1.2l0.7,0.9l0.6,1l1,0.9l0.6-0.1l0.6-0.4l0.5-0.1l0.4,0.4l0,0.6l-0.7,0.3l-1.1,1.3
		l-1.1,0.7l-0.3,1.3l-0.5,1.6l-1.2,2.6l0.9,0.4l2.9-0.1l1.4,0.4l2.9,3.3l-0.3,0.5l0,0.8l1.9,0.5l1.3,2.6l1.6,0.6h2.2l2.2-1.6
		l1.7-1.8l-0.4-0.9l-1.9-1.8l-0.6-0.9l-1.1-0.4l-0.2,0.7l-0.8-0.6l-0.2-0.4l0.5-0.4l0.7-0.1l0.9,0.2l2.7,1.8l1.5,3l0.7,2l0,0.7
		l-0.6,0l-1.1,0.5l-5,2.6l-0.9,1.3l-2.4,1.8l-0.3-0.4l-0.1-1.1l-0.8-2l-0.6,0.1l-3.2,4.6l-1.6,0.7l-1.1,1.4l-0.5-0.5l-1-2.5l0.2-2.4
		l-0.4,0.2l-0.6,1l-0.8-0.8l-0.7-0.3l-0.7-0.3l-0.2-0.8l-0.3-1.2l-0.7,0l-0.5-1.4l-0.3-0.9l-1.1,0.3l-0.9,0.3l-1.5,0.4l-1.6,0.5
		l-1.1,0.3l-0.1-0.2l-1.8,0.5l-1.8,0.5l-1.8,0.5l-1.8,0.5l-1.8,0.5l-1.8,0.5l-1.8,0.4l-1.8,0.4l0,0.5l-0.6,0.2l-0.2-0.5l-1.3,0.3
		l-1.3,0.3l-1.3,0.3l-1.3,0.3l-1.3,0.3l-1.3,0.3l-1.3,0.3l-1.3,0.3l-0.5-0.4l0-1.9l0-1.9l0-1.9l0-1.9l0-1.9l0-1.9l0-1.9l0-1.9
		l1.5-0.3l1.5-0.3l1.5-0.3l1.5-0.3l1.5-0.3l1.5-0.3l1.5-0.3l1.5-0.3l2.2-0.5l2.2-0.5l2.2-0.5l2.2-0.5l2.2-0.5l2.2-0.5l2.2-0.5
		l2.2-0.5l1.2-0.9l1.1-2l0.9-0.6l1.3-1.4l0.7-0.4L885,135z M898.3,164.4l-4,2.2l-0.9-0.4l1-0.6l0.9-1.9l0.8-0.4l1.6,0.5L898.3,164.4
		z M907.2,164.3l-1.1,0.7l-3,0l2.1-1.3l0.3-0.3l0-1l-0.1-0.5l1.5,1.8L907.2,164.3z"/>
	<path id="US-MD" class="st0" d="M824.2,219.8l0.9,3.3l0.9,3.3l0.9,3.3l0.9,3.3l0.9,3.3l0.9,3.3l0.9,3.3l0.9,3.2l0,0l0,0l0,0l0,0
		l0,0l0,0l0,0l0,0l1.6-0.4l3.6-0.8l3.6-0.8l1.7-0.4l0.1,0.6l0,0.9l-0.3,0.4l-0.2-0.9l-0.3-0.3l-0.3,0.5l-0.2,0.5l0.3,1.8l-0.1,1
		l-1,0.5l-0.5,2.6l-0.7,1.6l-0.2,0.9l-1.5,0.6L835,255l-0.4,1.1l-1.3-0.1l-1.9,0.5l0.1-1.3l0.3-1.2l-1.2-0.9l-0.6,0l-0.7-0.3
		l0.5-1.1l0.1-1.1l-0.5-1.1l0.1-1l-0.5,0.2l-0.6,1.1l-0.4,0.5l-0.5-0.8l-0.3,0.3l-0.1,0.6l-0.4,0.4l-1.2-0.6l-1.8-0.6l-1.2-1.4
		l-0.8-1.1l0-2.3l1-0.6l1.5,0l1.8-0.4l-0.4-0.4l-0.6,0.2l-2.3-1.3l-0.9-0.9l-1.1-0.1l-0.3,1.1l-0.5,0.4l0.2-2.4l0.8-0.3l1.1-0.9
		l-0.7-1.2l-0.9-0.4l-1.3,1l-0.2-0.9l0-1.2l1.1-0.2l1,0.2l0.4-2.1l-0.2-0.9l-1.1,1.5l-0.9-2.6l0.8-2.9l1-1.4l1.6-0.3l1.6-0.5
		l-1.1-0.2l-1.1,0l0.6-1.2l0.6-0.3l0.4-1l-1.5,0.5l-0.2-1.7l-0.7,0.5l-0.9,0.4l-0.2,0.8l0.3,1.2l-0.1,0.8l-0.6,0.8l-1.1,0.7
		l-0.3-0.8l-0.5-0.3l0.2,1.8l-0.2,0.7l-1.2-1.5l-0.2,0.4l0.1,0.5l0,0.9l-0.7,0.6l0.3,1.1l-0.2,0.6l-2.6-0.4l0,0.3l1.8,1.7l1.1,0.5
		l0.4,1.1l-0.7,1.1l-1.4-0.5l-0.2,0.1l0.9,1.2l0.7,1.1l-0.2,1.1l0.3,1.2l0.1,1.1l0,1l1.5,4.2l1,1l0.9,1l0.6,1l-0.7,0.3l-1.4-0.6
		l-1.2-0.4l-1.7-1.9l-0.4-0.8l-0.4-0.6l0.5,1.5l0.8,1.6l4.7,3l1,1.3l0.8,1l0.1,1.1l-1.2-0.6l-1.1-0.8l-2.5-0.6l-3-0.1l-2.2-2.3
		l0.2,1.1l-0.2,1l-1.2-0.9l-0.8-0.8l-0.4-1l-1.2,0.3l-1.1,1.2l-1.3,0l-0.5-1.8l0.1-1l0.9-2.6l1.1-1.4l0.3-1.6l-0.7-2.3l0.5,1.7
		l1.1-2l-1.2-1.1l-1.1-1.1l-1,1.7l-1.2-0.3l-2.2-1.4l-3.2-0.6l-0.5-0.5l-0.1-0.7l0.2-1l-1.1-0.7l-2.4-0.5l-1.1-0.6l-0.2-0.1
		l-0.3-0.9l-0.4-0.5l-0.5-0.2l-0.2-0.4l0.2-0.6l-0.4-0.5l-1-0.5l-0.4-0.5l0.2-0.6l-0.5-0.1l-1.2,0.3l-1.2-0.2l-1.3-0.7l-1.4,0.1
		l-2.1,1.4l-1.3,0.5l-0.5,0.7l-0.1,1l-0.5,0.6l-1.3,0.3l-0.2,0l-1.5,0l-1.1-0.4l-0.2-0.2l0-0.5l-0.2-0.2l-0.3,0l-0.2,0.3l-0.1,0.9
		L774,236l-1.3-0.3l-0.5,0.1l-2.9,4.1l-1,0.7l-1.8,1.9l-0.4-2.7l-0.4-2.7l-0.4-2.7l-0.4-2.7l3.7-0.7l3.7-0.7l3.7-0.7l3.7-0.7
		l3.7-0.7l3.7-0.7l3.7-0.7l3.7-0.8l3.7-0.8l3.7-0.8l3.7-0.8l3.7-0.8l3.7-0.8l3.7-0.8l3.7-0.8L824.2,219.8z M841.2,252.6l-0.4,0.2
		l0.3-0.8l0.6-3.8l0.4-1.3l-0.1,2.6l-0.6,2.5L841.2,252.6z"/>
	<path id="US-ME" class="st0" d="M883.7,36.7l0.2,0.4l0.9,0.6l1.1,0.2l0.8,0l0.8-0.3l1.9-1.7l2.4-1.5l1.3-1.1l0.1-0.7l0.6-0.4
		l1.1-0.2l2.4,0.9l3,1.5l2.3,1.2l1,3l1.1,3.2l1.1,3.3l0.8,2.4l1.1,3.3l0.9,2.6l1.1,3.4l0.6,1.8l0.4,0.4l0.1,0.8l0,0.4l0.1,0.3
		l0.2,0.3l0.1,0.5l-0.1,0.5l0,0.6l0.2,0.9l0.4,0.4l0.5,0.2l0.4-0.1l0.6,0.2l0.8,0.4l1,0.2l1-0.1l0.6-0.3l0.9,0.1l0.5,0.7l0.1,0.8
		l-0.3,0.5l-0.4,0.4l0.1,0.6l0.4,0.5l0.5,0.4l0.7,0.8l0.1,0.8l-0.1,0.8l0.1,0.7l0.5,0.5l1,0.5l0.7,0.6l0.9,0.2l0.3-0.4l0.2-0.5
		l0.2-0.4h0.6l0.7,0l0.7,0l0.1,0.7l0.7,0.9l1,1.9l-0.2,1.1l0.5,1.2l1.5-0.1l0.4,0.3l0.2,0.4l-1.9,4.1l-2.7,0.4l-1.1,1.3l-1.3,0.7
		l-0.2,1.6l-0.7,0.5l-1.1,0.3l-1.1-0.1l-0.7,0.4l-0.2,2.8l-0.9,0l0,1l-0.3,0.5l-0.5,0.5l-0.9-0.9L915,90l-0.6-0.1l-0.8-0.1l-0.7,0.2
		l-0.4,0.3l-0.4,0.9l-0.7,0.9l-0.8-0.3l-0.7-0.6l0,1.4l-0.2,1.5l0.6,1.5l0,1l-0.7-0.1l-0.8-0.6l-1.8-0.1l-1.3,0.5v-0.9l0.8-1.6
		l-0.4-0.1l-0.5,0.4l-0.3-0.1l0.1-1.3l-0.3-1.3l-0.4,0.6l-0.3,1.5L903,95l0.6,1.7l-0.5,4.1l0.4,1.6l-0.6,1.5l-1,1.4l-1.8,0.2
		l-1.1,1.3l-0.4,1.3l-0.5,0.3l-0.7-1.2l-0.3-0.3l0.1,2.1l-0.5,0.3l-0.6-1.3l-0.5-0.9l-0.4,1l0.2,2.2l-0.5,0l-0.4-0.7l-0.4-0.1
		l0.1,0.9l0.5,1.2l0,0.7l-0.6-0.2l-0.7-0.5l-0.7,0.7l-0.7,0.4l-0.2-0.6l-0.1-0.8l-1.3,0.8l-1.3,1.9l-0.8,2.3l0.6,0.2l0.7,0.5
		l-1.5,3.7l-1.6,3.4L886,129l-0.6,0.7l-0.4,1l-1.8-1.6l-0.7-1.5l-1.9-1.4l-0.9-1.1l-0.6-1.4l-0.4-1.5l-0.8-2.2l-0.8-2.2l-0.8-2.2
		l-0.8-2.2l-0.8-2.2l-0.8-2.2l-0.8-2.2l-0.8-2.2l-0.8-2.2l-0.8-2.2l-0.8-2.2l-0.8-2.2l-0.8-2.2l-0.8-2.2l-0.8-2.2l-0.7-2l0.3-0.4
		l0.7-0.8l0.6-0.1l0.7,0.7l0.6,0.5l0.4-0.3l0.2-0.9l-0.3-1.1l0.3-1l0.6-0.3l0.6-0.2l0.2-0.5l-0.2-0.5l-0.5-0.8l-0.2-1.1l1-2.3
		l1.5-1.8l0.5-0.8l-0.2-1.4l0.7-1.7l0.3-0.9l-0.1-0.7l-0.5-0.8l-0.4-1.6l-0.2-2l-0.2-2.2l0.4-2.2l1-2.5l-0.4-2.8l-0.4-3l1.1-3.3
		l1.2-3.8l0.7-2.2l1.3-3.9l0.9-2.8l0.5-1.3L880,34l1.5,0l1.5,0l0.4,1.9L883.7,36.7z M915,93.5l-0.7,0.7l-1,0.1l0.4,1.1l0,0.4
		l-1.2-0.2l-0.5-0.2l-0.4-1.4l0.5-1.6l0.5-0.7l1,0.1l1.2,1.3L915,93.5z M909.5,98.3l-0.4,0.6l-0.6,0.1l-0.3-1l0.1-0.4l0.2-0.2
		l0.4,0.2L909.5,98.3z"/>
	<path id="US-MI" class="st0" d="M596.8,77.2l0,0.4l0.5,0.1l-0.1,0.2l-0.5,0.4l-1.6,0.8l-1.1,0.3l-0.6-0.2l-0.1-0.4l0.4-0.7l0-0.3
		l-0.4,0l0.1-0.3l0.6-0.6l5.4-3.7l2.3-1.4l1.3-0.5l0.2,0.2l-1.3,1.3l-0.2,0.5l0.1,0.3l-0.4,0.7l-4,2.6L596.8,77.2z M608.8,91.7
		l-0.2,0.7l0.1,0.4l-1.6,2l-0.5,1.2l-0.5,0.2l-0.5-0.8l0-0.6l0.4-0.5l0.4-0.7l0-0.9l-0.2-0.3l-0.5,0.9l0.3,0.2l0.1,0.1l-0.1,0.3
		l-2.1-0.3l-0.7-0.6l0-0.9l0.6-1.2l2.2-2.7l1-0.8l3-1.4l1.7-0.4l1.7-0.2l1.3,0.2l0.8,0.7l-0.7,0.5l-3.3,0.7l-0.1,0.1L612,88l0.1,0.3
		l-0.5,0.8L608.8,91.7z M667,100.7l0.5,0.2l0.4,0.4l0.9,1.2l0.5,0.8l0.4,1.3l0.2,0.4l0.1,0.8l-0.4,0.6l-0.1,0.4l0.4,0.4l1.8-0.1
		l0.9,0.3l0.4,0.4l-0.1,0.5l0.2,0.5l0.5,0.5l1.5,0.7l0.4,0.4l0,0.4l-0.4,0.3l-0.7,0.2l-5.5-0.1l-1.6,0.1l-0.2,0.3l-0.1,0.1l-0.3,0
		l-0.5,0l-0.3-0.2l-0.3-0.5L665,111l-0.8-0.1l-0.6,0.5l-0.5,1.7l0.2,0.3l0,1.1l0.2,0.3l0,0.2l-0.2,0.2l-0.4,0l-0.7-0.2l-2.8-2.1
		l-2.1-1l-2.5-0.6l-1.9-0.2l-1.4,0.2l-1.1,0.8l-0.7,1.3l-1.3,0.9l-1.9,0.4l-1,0.4l-0.1,0.5l-0.7,0.1l-1.2-0.3h-1.3l-1.3,0.3
		l-0.9,0.6l-0.8,1.6l-0.1,0.8l-0.7,0.7l-1.8,1.2l-0.1,0.4l-0.9,1.3l-0.2,0.7l0.1,0.6h-0.3l-0.7-0.6l-0.1-0.9l0.5-1.2l0.5-0.6l0.5,0
		l0.2-0.6v-1.1l-0.2-0.5l-0.9,0.3l-0.4,0.5l-0.6,0.2l-0.8-0.2l-0.6,0.7l-0.4,1.5l-0.6,1l-0.8,0.5l-0.6-0.4l-0.4-1.4l-0.1-1.1
		l0.2-1.4l-0.2-0.2l-0.3,0.5l-0.4,1.2l-0.4,2.5l-0.4,0.8l-0.6,0.4l-0.8,1.6l-1,2.8l-1.2,2.7l-1.4,2.6l-0.9,1.4l-0.3,0.2l-0.1,0.5
		l0,1l-0.7-0.2l-0.7-0.8l-0.4-0.8l-0.1-0.9l0.7-2.3l0-0.4l-0.1-0.2l-0.5-0.2l-1.1,0.5l-1.1,0.2l-0.4-0.1l-0.2-0.4l0-0.6l0.2-0.7
		l0.5-1.3l-0.1-1.2l0.2-0.7l-0.4-1.3l0-0.6l-0.5-0.6l-1.3-0.8l-3-0.9l0.2-1.4l-0.2-0.6l-0.8-0.8L609,118l-2.1-0.3l-2,0.2l-1.5-0.2
		l-1.6,0l-1.1-0.5l-1.1-0.5l-1.1-0.5l-1.1-0.5l-1.9-0.4l-1.9-0.4l-1.9-0.4l-1.9-0.4l-1.9-0.4l-1.9-0.4l-1.9-0.4l-1.9-0.4l-0.5-0.9
		l-0.5-0.9l-0.5-0.9l-0.5-0.9l-0.9-0.3l-0.5-0.2l-0.4-0.4l-0.7,0.2l-0.3-0.8l0.1-0.2l1-0.3l2.7-1.3l2.3-1.5l1.8-1.7l2.4-1.1l2.9-0.6
		l2-0.7l1.2-0.9l1.6-1.6l0.9-0.5l1.2-0.2l0.9-0.7l0.5-1.1l1-1.3l1.6-1.4l0.9-0.6l0.3,0.2l0.1,0.5l0,0.7l0.5,0.5l0.9,0.3l0.4,0.5
		l0,0.7l0.3,0.6l0.6,0.4l0.2,1.1l-0.1,1.7l0.1,1.1l0.2,0.5l0.2,0.3l0.3-0.3l0.4-0.6l0.1-0.4l0.1-0.4l2.3-1.9l0.5-0.1l0.8,0.4
		l3.8,0.3l1.5,0.3l1.6,0.8l0.6,0.3l2.2,2.9l1,1.1l0.6,0.3l0.3,0.4l0.4,1.1l0.3,0.3l2.8,0l1.2-0.3l0.7-0.5l0.9,0.2l1,0.9l0.9,0.2
		l0.9-0.5l0.9-0.1l0.8,0.4l0.4,0.3l0.2,0l1.4-1.7l1.8-1.6l2.4-1.7l1.4-0.8l0.4,0.1l2.3-0.7l2.1-0.3l2.8,0l2.5-0.6l2.2-1.3l2-0.8
		l1.8-0.3l0.7,0.2l-0.4,0.7l-0.1,1.2l0.2,1.6l0,1l-0.2,0.5l0,0.4l0.3,0.4l1.8,0l1,0.4l1.1-0.1l1.1-0.6l0.9,0.1l0.7,0.8l0.9,0
		l0.8-0.7l0.6-0.6l0.5-0.3L667,100.7z M670.8,103.3l0.1,0.5l-0.5,0l-0.4-0.3l-0.4-0.5l-0.5-1.2l-0.7-0.8l0.7-1.1l0.5-0.2l0.6,0.2
		l0.2,0.6l-0.3,1l0.2,1L670.8,103.3z M671.3,105.8l-0.2,0.1l-0.9-0.7l-0.2-0.5l0.1-0.4l0.3-0.1l0.5,0.3l0.3,0.4l0.1,0.5L671.3,105.8
		z M681.1,109.5l0.2,0.5l-0.3,0.7l-1,0.5l-2.1,0.2l-1.4-0.1l-0.7-0.4l-0.2-0.2l0-0.6l0.3-0.1l0.5,0.2l0.7-0.2l0.8-0.7l0.4-0.5l0-0.3
		l-0.4-0.5l0.2-0.3l1.1,0l0.5,0.3l0.9,1.1L681.1,109.5z M666,115.7l1.9,0.1l0.2-0.2l0.6,0.5l0.1,0.5l-0.2,0.4l-0.3,0.3l-0.4,0.1
		l-0.7-0.3l-1.3-0.9L666,115.7z M663,116.7l1.1,0.3l2.1,1.1l1.9,0.5h1.7l1.3,0.3l0.9,0.6l0.7,0.7l0.5,0.8l0.9,0.4l1.3-0.1l1.1,0.2
		l0.8,0.5l4.3,1.1l1.8,0.6l1.1,0.7l0.3,0.5l0,0.5l0.2,0.6l0.9,1l0.3,0.1l0.2,0.5l0.2,1l0.3,0.6l0.4,0.3l-0.2,0.2l-1.3-0.4l-0.7,0.3
		l-0.2,0.8l0,0.7l0.3,0.6l1.9,1.7l0.7,1.7l0.4,2.1l-0.1,0.9l0.1,1.9l0.3,2.9l0.1,1l-0.4,1l-1.3,1.6l-0.1-0.3l-0.4,0l-0.4,0.3
		l-0.4,1.3l-0.2,2.2l-0.4,1.2l-0.6,0.3l-0.4,0.4l-0.1,0.4l-0.7,0.4l-1.3,0.3l-0.8,0.8l-0.4,1.9l0.1,0.9l-0.2,1.1l0.1,0.9l0.4,0.7
		l1.1,0.6l1.8,0.5l1.1,0l0.7-0.4l0.6-1.4l0.7-0.6l0.9-0.3l0.2-0.6l1.1-2.8l-0.1-0.6l-0.6-0.1l0.1-0.2l0.7-0.2l0.5-0.4l0.4-0.7
		l0.8-0.6l2-1l1-0.9l0.7-0.2l1.1,0.3l1.5,0.7l1.3,1.2l1.1,1.7l1.7,4.5l2.4,7.3l1.5,4.1l0.6,0.8l0.3,0.4l-0.2,6l-0.5,2.6l-1.3,1.6
		l-1.3,1.6l-1.6,2.6l-2,1.4l-1,0.8l-0.2,0.5l-0.3-0.1l-0.4,1.3l-0.3,1.8l0,1.4l0.3,0.7l-0.4,0.5l-0.7,1l-0.1,0.3l0.1,0.5l-0.1,0.3
		l-0.4,0l-0.3,0.3l-0.6,1l-0.9,2.6l-0.1,0.5l-0.1,0.2l-5.2,0.9l-5.2,0.9l-5.2,0.9l-5.2,0.9l-0.2-1.2l-4.8,0.6l-4.8,0.6l-4.8,0.6
		l-4.8,0.5L649,205l-4.8,0.5l-3.9,0.4l1-0.7l1.6-1.6l0.8-1.3l0.7-1.7l0.7-2.1l1.5-3.2l0.7-1.9l0.6-2.4l0.4-2.5l0.2-2.6l-0.1-2.6
		l-0.3-2.7l-0.7-2.7l-1.1-2.7l-0.6-1.4l-0.2-0.4l-1.8-3.3l-2.2-4.7l0-0.4l1.2-3.1v-0.4l-0.4-2.3l-0.4-1.1l-0.9-1.5l0-0.4l1.4-2.2
		l0.8-1.6l0.7-2l0.3-2.2l0-2.5l-0.2-1.7l-0.4-0.8l0-0.7l0.3-0.5l1.6-0.8l0.5-1.1l-0.1-1.8l0.2-0.9l0.6,0l0.5-0.4l0.4-0.8l0.6-0.3
		l0.8,0.2l1-1.2l1.1-2.6l0.9-1.5l0.7-0.4l0.2,0.2l-0.4,0.8l-0.1,0.8l0.3,0.9l-0.1,0.9l-0.2,1.2l0.3,0.3l-0.4,1.9l0.1,0.9l0.5,0.7
		l0.4-0.3l0.4-1.3l0.1-0.7l-0.2-0.1l0-0.5l0.2-1l0.3-0.5l0.3,0l0.1,0.5l0,1l-0.5,2.4l-0.1,0.7l0.2,0.2l0.8-1.6l0.6-2.4l0.4-1.8v-1
		l-0.5-2.5l-0.1-1l0.2-0.7l0.7-0.9l1.3-1.1l1.4-0.6l1.4-0.2l1-0.4l0.5-0.5l-0.2-0.3l-1-0.1l-0.8-0.5l-0.6-0.8l-0.3-1l0-1.1l0.5-1.2
		l0.9-1.2l0.2-0.8l-0.4-0.5l0.4-0.2l1.3,0l0.9-0.2l0.4-0.5L663,116.7z M651.7,122.1l-0.5,0.2l-0.4-0.2l0-1l0.3-1.8l0.4-0.9l0.7,0.2
		l-0.1,0.2l0.4,1.8l-0.2,0.9L651.7,122.1z M646.5,133.5l-0.1,0.3l-0.4,0l-0.4-0.3l-0.4-0.9l0.1-0.2l0.8,0l0.3,0.4L646.5,133.5z"/>
	<path id="US-MN" class="st0" d="M532.4,65.7l1.7-0.3l1.5,0l1.5,0.1l0.8,0.1l2.3,0.9l1.5,0.7l2.2,1.4l1.2,0.6l0.6,1.5l0.7,1.9l1,0
		l0.7-1.2l1.8-0.3l2.4,0.7l2.2,2.2l3.1,1.9l1.9,0.9l1.9-0.1l2.4-1.1l2.5-2.1l1.8-0.4l1.1,0.1l0.7,1.5l0.8,0.5l2-0.3l4.2,0l3.3-0.6
		l0.8,0.8l0.8,1.3l1.4,0.3l1.8-0.6l2.9,0.1l-0.4,0.2l-0.4,0l-0.5,0.4l-0.6,0.7l-1.5,1.1l-2.4,1.5l-2.8,1.4l-5.7,2.5l-3.5,2.4
		l-1.5,1.4l-5.9,7l-3.6,3.7l-5.9,5.2l-0.6,0.7l0,0.6h-0.3l-1,1.2l-0.4,0.8l-1,0.3l0.1,3.1l0.1,3.1l0.1,3.1l0.1,3.1l-0.5,0.3
		l-0.6,0.7l-0.9,0.2l-3.9,2.7l-0.6,0.8l-0.7,1.7l-1.3,2l-0.3,1l0.1,1.4l2.1,1l0.8,1l0.4,1.3l0,1.1l-0.9,2.2l-0.2,0.9l0.2,2.7
		l-0.5,0.9l0.5,2.2l0.1,0.8l-0.2,2.4l-0.2,0.7l0.4,1.2l0,0.1l2,1.7l1.7,0.9l1.5,0.2l1.2,0.7l0.9,1.1l1.1,0.7l1.4,0.3l1.5,0.9
		l2.3,2.3l1.2,2l2,1.4l3.2,1.4l2.1,1.3l1,1.1l0.8,2.9l0.8,6.3l-5.1,0.3l-5,0.2l-5.1,0.2l-5.1,0.2l-5.1,0.2l-5.1,0.2l-5.1,0.1
		l-5.1,0.1l-5.1,0.1l-5.1,0.1l-5.1,0.1l-5.1,0.1l-5.1,0l-5.1,0h-5.1l-5.1,0l0-4.8l0-4.8l0-4.8l0-4.8l0-4.8l0-4.8l0-4.8l0-4.8
		l-1.1-1.6l-2.5-1.3l-0.6-0.8l-1.1-1.9l-0.4-0.8l-0.1-0.6l0.6-0.7l2.3-2l0.7-0.9l0.4-0.9l0.5-2.1l-0.2-1.6l0.2-2.6l-0.4-1.9l-0.1-1
		l-0.3-1.2l-1.7-3.1l-0.4-2.5l-0.4-1.2l-0.1-3.2l0.1-0.9l0.4-1.7l-0.7-1.2l-0.1-1l-0.3-7.6l-0.2-1.1l0.1-3.5l-1.2-3.7l-0.6-1.3
		l-0.3-1.5l0-0.7l-1-2.6l-0.7-2.8l0.1-2.4l-0.2-1.8l0.1-1.4l-0.2-2.2l0.2-1.2l0-1.9l-1.3-6.8l1.7,0l6.1,0.1l6.1,0h6.1l6.1,0h3.4
		l0-4.6l0-3.6l3.1,0.4l0.9,0.7l0.3,0.3l-0.1,1l0.3,3l0.6,2.5l1.3,3v0l0.1,1.2l0.4,0.7l0.8,0.7l3,0.8l5.2,0.9l2.9,1.1l0.7,1.2
		l1.4,0.5l2-0.3l1.4-0.6L532.4,65.7z M532.4,65.7L532.4,65.7L532.4,65.7L532.4,65.7z"/>
	<path id="US-MO" class="st0" d="M569,240.8l-0.8,3.3l0.1,2.7l0.7,3.3l0.8,2.4l0.9,1.6l2.9,3l5,4.3l3.3,4.2l1.5,4.1l1.5,1.6l1.6-0.9
		l2.1,0.3l2.3,0.5l1.2,0.7l0.3,0.3l0.1,0.3l-0.1,0.3l-0.3,0.8l-2.3,7l-0.8,3.2l0.2,1.2l1.2,1.6l2.2,2.1l1.9,1.3l1.6,0.6l2.6,1.6
		l3.6,2.7l1.8,2.1l0.1,1.5l0.4,1.5l0.8,1.5l0.1,1.5l-0.6,1.4l0.4,1.8l1.4,2.2l1.2,1.3l0.9,0.4l0.2,0l0.1-0.2l-0.2-0.3l-0.1-0.3
		l0-0.4l0.2-0.2l0.2-0.1l0.8,0.5l1.3,1.2l0.7,1.7l0,2.1l-0.3,2.1l-0.7,2l-0.9,0.7l-0.4-0.1l-0.9-0.3l-0.3,0.1l-0.8,0.6l-0.8,1.9l0,0
		l-0.3,0.2l-0.2-0.2l0-0.1l-0.2-0.5L606,320l-0.3,0l-0.2,0.1l-0.1,0.3l0,0.6l0.1,0.2l0.4,1.6l-0.2,1.2l-0.8,0.5l-0.1,0.6l0.5,0.7
		l0,0.3l-0.2,0.3l-0.6,0.1l-0.4,0.2l-0.3,0.6l0.8,1.1l0,1.3l-0.9,1.6l-0.1,0.6l-3.2,0.3l-2.8,0.2l-2.8,0.2l-2.8,0.2l1.2-2.3l0.8-0.9
		l0.6-0.9l1.1-0.9l1.2-1.8l0.1-0.8l-0.2-0.8l-0.8-1l-0.9-1.6l-4.8,0.3l-4.8,0.3l-4.8,0.3l-4.8,0.3l-4.8,0.2l-4.8,0.2l-4.8,0.2
		l-4.8,0.2l-4.8,0.2l-4.8,0.2l-4.8,0.2l-4.8,0.1l-4.8,0.1l-4.8,0.1l-4.8,0.1l-4.8,0.1l0-2.7l0-2.7l0-2.7l0-2.7l0-2.8l0-2.8l0-2.8
		l0-2.8l0-2.8l0-2.8l-0.1-2.8l0-2.8l0-2.8l0-2.8l0-2.8l0-2.8l0-2.8l0-2.8l0-2.8l0-2.8l0-0.8l-2.6-1.4l-1.2-1.4l-0.6-1.8l-1.2-1.8
		l-1.8-1.7l-0.3-1.9l1.1-2l1-1l0.8,0l0.1-0.9l-0.6-1.7l-0.9-0.6l-1.2,0.4l-1,0l-3.8-2.7l-0.3-0.2l-1.2-1.8l-0.5-2.2l-0.9-1.4
		l-1.4-0.7l-0.9-1.4l-0.4-2.2l-0.9-2.2l-0.4-0.7l4,0l4.1-0.1l4.1-0.1l4.1-0.1l4.1-0.1l4.1-0.1l4.1-0.1l4.1-0.1l4.1-0.1l4.1-0.2
		l4.1-0.2l4.1-0.2l4.1-0.2l4.1-0.2l4.1-0.2l4.1-0.2l0.9,1.5l0.9,0.4l0.2,0.5l1.2,0.7l0.3,0.8L569,240.8z"/>
	<path id="US-MS" class="st0" d="M631.9,351.2l1.7,1.3l0,0.5l0,0.3l0,1l-0.1,4l-0.1,4l-0.1,4l-0.1,4l-0.1,4l-0.1,4l-0.1,4l-0.1,4
		l-0.1,4l-0.1,4l-0.1,4l-0.1,4l-0.1,4l-0.1,4l-0.1,4l-0.1,4l0.5,4l0.5,4l0.5,4l0.5,4l0.5,4l0.5,4l0.5,4l0.6,4.4l-5.4,0.8l-2.5-0.9
		l-1-0.1l-0.6,0.1l-2.7,1.2l-3.1,1l-0.8-0.2l-1.1,0l-2.1,2.8l-1.4,0.8l-0.5-0.1l-0.5-0.1l-0.4-0.3l-0.8-1.5l-0.3-1.1l-1-2.4l-1-1.3
		l-1.1-0.8l-0.5-0.9l0-0.6l-0.4-1.1l0-0.9l1.1-3.4l0.4-2.5l-4.4,0.3l-4.4,0.3l-4.4,0.3l-4.4,0.3l-4.4,0.2l-4.4,0.2l-4.4,0.2
		l-4.4,0.2l0-0.6l0.7-0.8l0.2-1l-0.7-2.3l0.2-1.3l1.1-0.3l0.5-1.3l-0.1-2.2l0.4-1.5l0.8-0.8l0.7-1.9l0.6-2.9l1.4-2.4l2.3-2l1.1-1.7
		v-1.3l0.2-0.6l0.5-0.3l0.7-0.9l1-1.2l0.1-0.8l-0.1-0.5l-0.1-0.6l-0.9-1l-1.3-0.8l-0.9-1.4v-1.1l-0.3-0.9l-0.7-0.8l0.1-0.8l0.8-0.8
		v-0.7l-0.8-0.6l-0.1-1.1l0.7-1.7l-0.1-1.1l-0.9-0.6l-0.2-1l-0.1-0.5l0.6-3.8l-0.2-0.5l-0.9-1.1l-0.2-1.4l0.4-1.7l-0.3-1.3l-0.7-0.4
		l-0.2-0.5l-0.2-0.8l0.7-0.7l0-0.7l-0.7-0.6l0.4-0.9l1.4-1.2l0.4-0.7l0.4-0.7l0.2-1.6l-0.3-0.9l-0.4-0.6l0.2-0.3l0.3-0.3l1.7-0.7
		l0.5-0.4l0.1-0.5l-0.6-1.2l0.5-1.3l1.6-1.4l0.8-1.2l0-1l0.7-0.8l1.4-0.6l0.8-2l0.2-3.4l0.3-1.5l0.7-0.3l0.4-0.5l0.1-1l0.8-1
		l1.6-1.1l0.6-1l-0.2-0.5l0-0.7l4.5-0.3l4.7-0.3l4.6-0.3l4.6-0.3l4.6-0.3l4.6-0.4l4.6-0.4L631.9,351.2z M633.5,453.7l-0.2,0.3
		l-1.7-0.3l-1-0.3l-0.2-0.4l2.8,0.5L633.5,453.7z"/>
	<path id="US-MT" class="st0" d="M375.1,118.6l-0.4,5l-0.4,5l-0.4,5l-0.4,5l0,0.1l0,0.1l0,0.1l0,0.1l-0.1,0l-0.1,0l-0.1,0l-0.1,0
		l-3.3-0.3l-3.3-0.3l-3.3-0.3l-3.3-0.3l-3.3-0.3l-3.3-0.3l-3.3-0.4l-3.3-0.3l-3.3-0.4l-3.3-0.4l-3.3-0.4l-3.3-0.4l-3.3-0.4l-3.3-0.4
		l-3.3-0.4l-3.3-0.4l-3.3-0.4l-3.3-0.4l-3.3-0.4l-3.3-0.4l-3.3-0.5l-3.3-0.5l-3.3-0.5l-3.3-0.5l-3.3-0.5l-3.3-0.5l-3.3-0.5l-3.3-0.5
		l-3.3-0.5l-3.3-0.5l-3.3-0.5l-3.3-0.5l-0.4,2.7l-0.4,2.7l-0.4,2.7l-0.4,2.7l-0.9-0.7l-0.6-0.8l-0.4-0.8l-0.7-2.2l-0.4-0.9l-0.4-0.5
		l-0.5-0.1l-0.7,0.2l-0.6,0.4l-0.3,0.8l-0.7,0.9l-0.1,0.8l0.1,0.5l-0.1,0.2l-0.3,0.1l-2.3-0.7l-2.2,0.1l-1.4-0.6l-2.8-0.3l-2.3-0.7
		l-0.8,0l-0.6,0.3l-0.9,1l-0.2,0.2l-0.3,0l-3.7-1.3l-1-0.2l-1.2,0.5l-0.4,0.5l-0.2,0.7l-0.3,0.1l-0.3-0.1l-0.8-0.6l-0.8-0.9
		l-0.3-0.6l0.1-1.3l-0.5-1.5l0.1-1.3l-0.3-1.1l-0.5-1.2l-0.6-0.8l-0.7-0.4l-1.3-0.1l-0.2-0.2l-1.1-1.7l-0.3-0.7l0-0.6l0.7-1.3l0-0.8
		l-0.2-1l-0.3-0.9l-0.7-0.8l-0.4-1.6l-0.9-2.3l-0.1-1.6l-0.2-1.4l0.1-1.3l-0.3-0.9l0.2-1l0-0.3l-0.1-0.2l-0.8-0.7l-0.8-1.2l-0.5-0.3
		l-0.2-0.1l-0.2,0.2l-0.2,0.4l-2,1.3l-1.5,0.5l-0.8,0.6l-0.7,0.3l-0.3,0l-0.4-0.3l-1.2-1.4l-1.1-0.8l-0.1-0.3l0.3-0.9l0.8-1
		l-0.1-2.1l0.3-0.7l0.5-0.4l1.4-0.5l0.2-0.3l0.1-2l-0.6-0.9l-0.1-0.4l0.5-1.5l-0.1-1.1l0.7-0.7l0.3-1.5l0.8-1.4l0.9-2.2l0.1-1
		l0.8-0.9l0.4-1l0.2-0.8v-0.5l-0.2-0.2l-0.4-0.1l-2.1,0l-0.6-0.2l-0.5-0.3l-0.3-0.4l0.1-0.9l-0.3-0.7l-0.2-0.1l-1,0.2l-0.2-0.1
		l-0.1-0.2l-0.2-0.8l-1.2-1.7l-0.4-1.8l-1.1-1.7l-0.9-2.2l-1.9-3.6l-0.5-0.8l-1.7-1.5l-1.2-1.9l-1.3-1.4l-0.1-0.2l0-0.1l0.1-0.1
		l0.5-0.2l0.2-0.6l-0.3-1.3l0.5-1.1l0-1.7l-0.1-0.6l-0.8-1.7l-0.4-1.6l-0.8-1.6l-1.1-2.5l1.2-5.2l1.2-5.2l1.2-5.2l1.2-5.2l2.6,0.6
		l5.9,1.3l5.9,1.3l5.9,1.3l6,1.2l1.3,0.3l4.6,0.9l6,1.2l6,1.1l6,1.1l6,1.1l6,1.1l6,1l6,1l6,1l4.5,0.7l1.5,0.2l6,0.9l6,0.9l6,0.9
		l6,0.8l6,0.8l6,0.8l6,0.7l6,0.7l6,0.7l6,0.7l6,0.6l6,0.6l6,0.6l4.5,0.4l-0.3,4.1l-0.3,4.1l-0.3,4.1l-0.3,4.1l-0.3,4.1l-0.3,4.1
		l-0.3,4.1l-0.3,4.1l-0.3,4.1l-0.3,4.1l-0.3,4.1l-0.3,4.1l-0.3,4.1l-0.3,4.1l-0.3,4.1L375.1,118.6z"/>
	<path id="US-NC" class="st0" d="M836,286.3l-0.1,1.7l0.4,0.9l1.1,0.8l1.5,2.2l1.5,3l-1.3-1.1l-1.3-0.4l-1.9-0.1l-1.8-0.6l0.4,1.3
		l0.2,1.5l-1.3-0.2l-0.9-0.3l1.1,1.4l-1.7-0.1l-1,0.3l-0.4,1.5l-0.7,1l-1.3,0.6l-2.3-0.8l-1-1.4l-0.6-1.6l0.3,2l0.8,2l0.2,1.6l2-0.1
		l1.8-0.7l2.5-0.5l1.5-0.7l0.9-0.7l2.4-0.1l0.6,1.9l0.2,2l0.3,2l0.6-0.2l0.6-0.8l-0.4-3.7l1.8-1.8l0.7-0.1l0.9,1l0.5,1.1l0.6,1.6
		l0.1,2.6l-2.6,3.6l-1.7,3.2l-1.1,0.8l-1.8,0.1l-2.1-0.2l-1,0.1l-0.7,0.4l-0.6-0.7l-0.6-1.4l-0.9-0.3l-0.6,0.2l0,1.7l-1.7,0.8
		l-2.6-0.1l-2.9-0.8l1.4,1.2l7,1.3l0.8,0.3l0.8,0.6l-0.7,1.3l-0.4,1.4l0.1,1l-0.1,0.7l-2.2,2.3h-1.5l-4.2-2.4l2.2,2.4l1.6,0.9l2.8,0
		l4.7-2.1l1.9,0.7l-0.9,2.2l-1,1.7l-1.7,0.5l-1.5,0.7l-0.2,1l-1.1,0.3l-1.7,0.4l-2.6,0.7l-1.5,0.1l-1.6,2.4l-0.7,0.4l-1.1-0.1
		l-0.8-1.5l-0.6-0.7l0.6,2.9l0.4,0.7l0.5,0.5l-2.1,2.1l-1.9,2.4l-0.7,0.7l-0.7,1.2l-1.3,3.2l-0.1,2.2l-0.2,2.5l-0.3-1l-0.2-1.8
		l-0.9-1.9l0.4,3.7l-0.4,1.9l-6.9,1.2l-2.6,1.4l-3-2l-2.8-1.9l-2.8-1.9l-2.8-2l-2.8-2l-2.8-2l-2.8-2l-2.8-2l-2.5,0.4l-2.5,0.4
		l-2.5,0.4l-2.5,0.3l-2.5,0.3l-2.5,0.3l-2.5,0.3l-2.5,0.3l-0.4-1.6l-0.3-1.2l-1.9-1.7l-1.1-1l-1.8,1.3l-0.2-0.5l-0.1-0.9l-0.2-0.3
		l-0.6-0.1l-2.8,0.3l-2.8,0.3l-2.8,0.3l-2.8,0.3l-2.8,0.3l-2.8,0.3l-2.8,0.3l-2.8,0.3l-0.7-0.1l-1.1,0.9l-3.1,1.5l-1.5,1.2l-0.6,0
		l-2.6,1.3l-2.6,1.3l-0.3,0l-5.2,0.8l-5.2,0.8l-5.2,0.8l-5.3,0.8l0.1-4.6l0.3-1.1l0.5-0.3l1.8-0.2l1.1-0.7l0.7-2.8l2-2.4l1-0.7
		l1.5-0.6l3.6-1l3.6-2.6l2.5-2.4l2.2-0.9l0.6-0.8l0.4-1l0.1-1.3l0.2-0.3l1.3-0.1l0.8-1.2l0.9-0.8l0.9-0.5l0.6-0.1l0.3,0.3l0.3,0.9
		l0.2,0.3l0.4,0l0.5-0.3l0.6-0.7l1.6-2.2l1.1-0.9l1.9-0.7l1.6,0.8l0.8-0.5l1.8-4.2l0.9-0.9l0.7-0.4l1.3-0.3l-0.2-1.1l0.2-1.7
		l-0.1-1.1l0.5-1.7l0.3,0.3l6.1-0.9l6.1-1l6.1-1l6.1-1l6.1-1l6.1-1.1l6.1-1.1l6.1-1.1l6.1-1.1l6.1-1.1l6.1-1.2l6.1-1.2l6.1-1.2
		l6.1-1.2l6.1-1.3L836,286.3z M837.3,286l0.5-0.1l3.2,6.3l5,6.5l0.7,1.2l-1-0.9l-3.6-4.2l-2.2-3.2L837.3,286z M844.8,299.5l-0.2,0.5
		l-1.6-2l1.3,0.5l0.3,0.6L844.8,299.5z M849.3,311.9l-2.2,1.1l-0.2-0.1l2.3-1.8l-0.1-4.4l-0.3-1.9l-1.2-3.3l-0.2-0.7l0.7,1l1.1,3.1
		l0.4,2.4l0,3.7L849.3,311.9z M845.5,313.9l-2.8,2.2l-0.4,0l1.8-1.5L845.5,313.9z M835.7,328l-0.4,0.3l1-2.9l2.4-4l0.7-0.7l-2,3.4
		L835.7,328z M834.9,327.9l-0.4,0.1l-0.7-0.1l-1-0.2l-0.3-0.3l0.9-0.1L834.9,327.9z"/>
	<path id="US-ND" class="st0" d="M486.5,123.8l-3.5,0l-3.5,0l-3.5,0l-3.5-0.1l-3.5-0.1l-3.5-0.1l-3.5-0.1l-3.5-0.1l-3.5-0.1
		l-3.5-0.1l-3.5-0.1l-3.5-0.1l-3.5-0.1l-3.5-0.1l-3.5-0.2l-3.5-0.2l-3.5-0.2l-3.5-0.2l-3.5-0.2l-3.5-0.2l-3.5-0.2l-3.5-0.2l-3.5-0.2
		l-3.5-0.2l-3.5-0.2l-3.5-0.3l-3.5-0.2l-3.5-0.3l-3.5-0.3l-3.5-0.3l-3.5-0.3l-3.5-0.3l0.3-4.1l0.3-4.1l0.3-4.1l0.3-4.1l0.3-4.1
		l0.3-4.1l0.3-4.1l0.3-4.1l0.3-4.1l0.3-4.1l0.3-4.1l0.3-4.1l0.3-4.1l0.3-4.1l0.3-4.1l0.3-4.1l1.5,0.1l6.1,0.5l6,0.5l6.1,0.5l6.1,0.4
		l6.1,0.4l6.1,0.4l6.1,0.3l6.1,0.3l6.1,0.3l6.1,0.3l6.1,0.2l6.1,0.2l6.1,0.2l6.1,0.1l6.1,0.1l4.3,0.1l1.3,6.8l0,1.9l-0.2,1.2
		l0.2,2.1l-0.1,1.4l0.2,1.8l-0.1,2.4l0.7,2.8l1,2.6l0,0.7l0.3,1.5l0.6,1.3l1.2,3.8l-0.1,3.5l0.2,1.1l0.3,7.6l0.1,1l0.7,1.2l-0.4,1.7
		l0,0.9l0.1,3.2l0.4,1.3l0.4,2.5l1.7,3.1l0.3,1.2l0.1,1l0.4,1.9l-0.2,2.6L486.5,123.8z"/>
	<path id="US-NE" class="st0" d="M487.2,197.2l0.5,0.1l1.1,1.9l0.4,3.4l1,2.7l1.5,2.1l0.7,1.5l0,1l0.4,1l0.7,1.1l0.3,1.9l-0.1,2.6
		l0.3,1.4l0.8,0.2l0.3,0.4l-0.1,0.6l0.2,0.4l0.6,0.3l0.2,0.8l-0.3,1.2l0.2,0.8l0.7,0.3l0.1,0.6l-0.4,0.9l0.1,0.7l0.6,0.5l0.4,2.3
		l0.2,4.1l-0.1,2.4l-0.3,0.7l0.5,1.5l1,1.6l0.4,0.7l0.9,2.2l0.4,2.2l0.9,1.4l1.4,0.7l0.9,1.4l0.5,2.2l1.2,1.8l0.3,0.2l-2.9,0l-3.4,0
		l-3.4,0l-3.4,0l-3.4,0l-3.4,0l-3.4,0l-3.4,0l-3.4,0l-3.4,0l-3.4-0.1l-3.4-0.1l-3.4-0.1l-3.4-0.1l-3.4-0.1l-3.4-0.1l-3.4-0.1
		l-3.4-0.1l-3.4-0.1l-3.4-0.1l-3.4-0.1l-3.4-0.1l-3.4-0.2l-3.4-0.2l-3.4-0.2l-3.4-0.2l-3.4-0.2l-3.4-0.2l-3.4-0.2l-3.4-0.2l-3.4-0.2
		l-3.4-0.2l0.2-2.7l0.2-2.7l0.2-2.7l0.2-2.7l0.2-2.7l0.2-2.7l0.2-2.7l0.2-2.7l-4-0.3l-4-0.3l-4-0.3l-4-0.3l-4-0.3l-4-0.3l-4-0.3
		l-4-0.3l0.5-5.3l0.5-5.3l0.4-5.3l0.5-5.3l0.4-5.3l0.5-5.3l0.5-5.3l0.4-5.3l5.4,0.5l5.4,0.4l5.4,0.4l5.4,0.4l5.4,0.4l5.4,0.4
		l5.4,0.3l5.4,0.3l5.4,0.3l5.4,0.3l5.4,0.3l5.4,0.2l5.4,0.2l5.4,0.2l5.4,0.2l6.2,0.2l4.6,3.3l2.8,1.1l1.3-0.9l2.9-0.5l4.4-0.1
		l2.8,0.5l1.2,1l2.3,1.2l3.4,1.3l2,1.4l0.7,1.5l1.2,0.9L487.2,197.2z"/>
	<path id="US-NH" class="st0" d="M885,130.7l0.1,2.9l0,1.4l-1.8,0.4l-0.7,0.4l-1.3,1.4l-0.9,0.6l-1.1,2l-1.2,0.9l-2.2,0.5l-2.2,0.5
		l-2.2,0.5l-2.2,0.5l-2.2,0.5l-2.2,0.5l-2.2,0.5l-2.2,0.5l-0.4-0.7l-1.2-1.1l-0.3-0.5l-0.1-0.6l0-1.8l0.2-0.6l0.1-1.1l-0.5-4
		l-0.1-2.3l-0.7-4.2l0-1.3l0.2-0.8l0.1-2.1l0.7-1.9l0.2-2.1l0.4-1.9l-0.1-1l0.1-2.3l-0.6-3.9l0.3-0.7l1.8-1.1l0.5-0.6l1.7-2.1
		l0.5-0.8l0.2-0.8l0-1.1l0.2-0.4l-0.1-0.6l-1.4-2.3l-0.3-0.9l0.8-3.3l-0.8-1.6l0.1-0.5l0.3-4.4l0.8-2.2l2,0.1l1-0.3l0.5-0.9l0.7,2
		l0.8,2.2L869,93l0.8,2.2l0.8,2.2l0.7,2.2l0.8,2.2l0.8,2.2l0.8,2.3l0.7,2.2l0.8,2.2l0.8,2.2l0.8,2.2l0.8,2.2l0.8,2.2l0.8,2.2
		l0.4,1.5l0.6,1.4l0.9,1.1l1.9,1.4l0.7,1.5L885,130.7z"/>
	<path id="US-NJ" class="st0" d="M847.6,186.5l0.1,1.7l-0.7,3.6l-0.5,0.9l-0.6,0.9l-0.5,0.4l-0.4,0.7l-0.4,1l-0.2,1.8l0.7,1.4
		l3.2-0.2l0.7-0.7l0.7,1l0.6,1.4l0.2,1.7l-0.1,1.8l0.1,2.1l0.4,3.2l0.2,2.9l-0.3-0.8l-0.5-3.5l-0.4,0.5l-0.2,0.9l0.1,4.6l-0.7,2.6
		l-0.8,1.9l-1.3,0l0.6,1.2l-0.2,0.7l0,1.5l-0.5,1.1l-0.7,0.1l-0.8,0.9l-0.3,0.6l0.2,0.9l-0.5,1l-1.4,4.8l-1.8,1.8l-0.5-0.1l0.1-2.1
		l-0.1-2.1l-1.5-0.6l-1.3-0.2l-1.4,0.4l-1.9-1.2l-2.2-0.7l-3.5-2.5l-0.1-0.9l-0.4-1.4l0.3-2.5l0.4-1.8l0.9-1.1l3-1.6l0.5-1.5
		l0.2-1.2l0.6-0.9l1.5-1.7l2.4-2.2l-5.1-4.3l-1-0.1l-1.6-2.3l-1.3-0.4l-0.4-0.3l-0.5-1.9l-0.2-1.1l0-0.7l0.9-0.8l0.3-1.3l-0.1-0.6
		l-1.2-1.6l-0.1-0.6l1.2-1.4l1.4-2.6l0.6-2.6l0.3-0.8l0.4-0.6l1.1-1l1.8,0.6l1.8,0.6l1.8,0.6l1.8,0.6l1.8,0.6l1.8,0.6l1.8,0.6
		L847.6,186.5z M850.8,214.4l-1.1,3.6l-0.2-0.6l1.4-4.5L850.8,214.4z"/>
	<path id="US-NM" class="st0" d="M374.7,320.5l-0.7,0l-0.5,6l-0.5,6l-0.5,6l-0.5,6l-0.5,6l-0.5,6l-0.5,6l-0.5,6l-0.5,6l-0.5,6
		l-0.5,6l-0.5,6l-0.5,6l-0.5,6l-0.5,6l-0.5,6l-4.1-0.3l-4.1-0.3l-4.1-0.3l-4.1-0.3l-4.1-0.4l-4.1-0.4l-4.1-0.4l-4.1-0.4l-4.1-0.4
		l-4.1-0.4l-4.1-0.4l-4.1-0.4l-4.1-0.4l-4.1-0.4l-4.1-0.5l-4.1-0.5h-0.1l1.4,4.1l0,0l2.1,1.3l-0.1-0.1l-4-0.5l-4-0.5l-4-0.5l-4-0.5
		l-4-0.5l-4-0.5l-4-0.5l-4-0.6l-0.3,2.4l-0.3,2.4l-0.3,2.4l-0.3,2.4l-6.5-0.9l-6.4-0.9l-2.3-0.3l1.1-7.5l1.1-7.5l1.1-7.5l1.1-7.5
		l1.1-7.5l1.1-7.5l1.1-7.5l1.1-7.5l1.1-7.5l1.1-7.5l1.1-7.5l1.1-7.5l1.1-7.5l1.1-7.5l1.1-7.5l1.1-7.5l6.4,0.9l6.4,0.9l6.4,0.9
		l6.4,0.8l6.4,0.8l6.4,0.8l6.4,0.8l6.4,0.7l6.4,0.7l6.4,0.7l6.4,0.6l6.4,0.6l6.4,0.6l6.4,0.6l6.4,0.5l6.4,0.5l-0.2,2.7l-0.2,2.7
		l-0.2,2.7L374.7,320.5z"/>
	<path id="US-NV" class="st0" d="M189,284l-1.7,8.2l-1.8,9l-0.3,0.1l-1.4,1.9l-1.3,0.7l-0.8-0.2l-0.7-0.8l-0.6-1.3l-1.1-0.9
		l-1.6-0.5l-1.5-0.1l-1.4,0.3l-0.9,0.6l-0.7,1.4l0,0.7l0.5,1.6l-0.4,2.2l-0.2,1.8l0.3,1.1l-0.1,1.1l-0.7,1.7l-0.1,1.5l0.4,2.8
		l-1.9,7.3l0,0.1l-3.7-5.4l-3.5-5.1l-3.4-5.1l-3.4-5.1l-3.4-5.1l-3.4-5.1l-3.3-5.1l-3.3-5.1l-2.4-3.6l-2.4-3.6l-2.4-3.6l-2.4-3.6
		l-2.4-3.6l-2.3-3.6l-2.3-3.6l-2.3-3.6l-3-4.3l-3-4.3l-3-4.3l-2.9-4.3l-2.9-4.4l-2.9-4.4L104,224l-2.9-4.4l1-3.8l1-3.8l1-3.9l1-3.8
		l1-3.8l1-3.9l1-3.8l1-3.9l1-3.8l1-3.9l1-3.9l1-3.8l1-3.9l1-3.9l1-3.9l1-3.9l5.7,1.5l5.7,1.5l5.7,1.5l5.7,1.5l5.8,1.4l5.8,1.4
		l5.8,1.4l5.8,1.4l5.8,1.3l5.8,1.3l5.8,1.3l5.8,1.3l5.8,1.2l5.8,1.2l5.8,1.2l5.8,1.2l-0.7,3.3l-0.7,3.3l-0.7,3.3l-0.7,3.3l-0.7,3.3
		l-0.7,3.3l-0.7,3.3l-0.7,3.3l-0.7,3.3l-0.7,3.3l-0.7,3.3l-0.7,3.3l-0.7,3.3l-0.7,3.3l-0.7,3.3l-0.7,3.3l-0.7,3.3l-0.7,3.3l-0.7,3.3
		l-0.7,3.3l-0.7,3.3l-0.7,3.3l-0.7,3.3l-0.7,3.3l-0.7,3.3l-0.7,3.3l-0.7,3.3l-0.7,3.3l-0.7,3.3l-0.7,3.3l-0.7,3.3L189,284z"/>
	<path id="US-NY" class="st0" d="M766.1,91.2L766.1,91.2L766.1,91.2L766.1,91.2z M848.6,147.6l0,1.9l0,1.9l0,1.9l0,1.9l0,1.9l0,1.9
		l0,1.9l0,1.9l0.5,0.4l0.4,2l0.4,2l0.4,2l0.4,2l0.4,2l0.4,2l0.4,2l0.4,2l0.7,0.7l0.7,0.7l-0.5,0.5l-0.8,0.8l-0.8,0.9l-1.1,1.1
		l0.9,0.9l1.1,1.1l-0.5,0.7l-1.2,2.2l-0.9,1.3l-0.9,0.5l-0.4,0.9l-0.5,0.7l0.2-2l0.3-1.7l-0.2-3.1l-0.8-2.3l-0.9-0.8l-0.9-0.5
		l1.4,2.2l0.8,2.9l0,0.1l-1.7-0.6l-1.8-0.6l-1.8-0.6l-1.8-0.6l-1.8-0.6l-1.8-0.6l-1.8-0.6l-1.8-0.6l-0.5-0.7l-0.7-0.5l-3-0.4
		l-0.9-0.5l-0.9-0.8l-0.7-1l-0.5-1.2l-0.2-1l0-1.1l-0.8-0.6l-0.2-0.7l-0.5-0.4l-2-0.4l-0.8-1l-1.4-0.8l-2.1,0.5l-2.1,0.5l-2.1,0.5
		l-2.1,0.5l-2.1,0.5l-2.1,0.5l-2.1,0.5l-2.1,0.5l-2.1,0.5l-2.1,0.5l-2.1,0.5l-2.1,0.5l-2.1,0.4l-2.1,0.4l-2.1,0.4l-2.1,0.4l-2.1,0.4
		l-2.1,0.4l-2.2,0.4l-2.1,0.4l-2.2,0.4l-2.2,0.4l-2.2,0.4l-2.2,0.4l-2.2,0.4l-2.2,0.4l-2.2,0.4l-2.2,0.4l-2.2,0.4l-2.2,0.4l-2.2,0.4
		l-2.2,0.4l-0.5-2.8l-0.5-2.8l0-0.1l0.8-0.7l2.6-2.5l1.2-1.7l1.4-1.4l1.5-1.2l1.1-1.4l0.7-1.6l0.9-1.3l1-0.9l0.5-0.9l-0.1-0.8
		l-0.4-1l-0.8-1.2l-0.3-1l0.2-0.8l0-0.5l-0.3-0.2l-2.6-0.3l-0.6-3.6l0-0.1l0.1-0.1l5.3-2.7l3.4-1.2l4.3-1l5.3-0.2l2.1,0.3l1.5,0.7
		l1.5-0.1l1.6-0.8l2.3-0.6l3-0.5l1.6-0.1l0.3,0.2l0.2-0.1l0.1-0.5l0.7-0.7l2-1.2l0.3,0.1l0.4-0.5l0.4-1.1l0.9-1.3l1.4-1.5l1.3-0.9
		l1.3-0.3l0.8-0.5l0.3-0.6l0-0.5l-0.3-0.3l0-0.4l0-0.2l-0.1-0.2l-0.2-0.3l-0.5-1.8l-0.4-0.8l-0.5-0.6l-0.5-0.3l0-0.4l0.7-0.7l0,0.5
		l0.2,0.1l0.3-0.3l0.6-1.3v-0.4l0.5-0.6l0.3-0.7l-0.5,0l-1.1,0.4l-0.3-0.1l0.4-1l-0.2-0.5l-0.2-0.2h-0.4l-1.1,1.1l-0.4,0.2l-0.1-0.4
		l-0.8-0.8l1.4-2l5.1-5.8l0.5-0.8l0.1-0.7l-0.3-0.5l-0.2-0.1l0.1-0.2l4.5-7.1l2.7-3.4l2.4-2.1l1.9-1.2l1.4-0.2l0.8-0.3l0.7-0.2
		l3.4-0.8l6.1-1.5l6.1-1.5l3.6-0.9l0.5,1.3l0.1,1.7l0.7,1.7l0.6,3.8l1.7,2.6l0.3,2l0.6,2l0,0.5l-0.4,1.4l-0.1,1.3l0,1.2l0.2,0.8
		l1.5,3.2l0.5,1.5l0.2,0.9l0.1,2.9l0.2,0.8l0.2,0.2l0.2,0l0.4-1l0.2-0.2l0.4,0.1l1.2,1.1l0.6,2.4l0.4,1.7l0.4,1.9l0.7,2.9l0.5,2.1
		l0.4,1.9l0.3,1.5l0.1,1.1L848.6,147.6z M797.9,126.2l-0.4,0.3l-0.2-0.2l0-0.2l0.3-0.4l0.7-0.1l0,0.2L797.9,126.2z M796.9,132.7
		l-0.2,0.1l-0.1-0.4l0.2-0.3l0.4-0.2l0,0.2L796.9,132.7z M760.5,161.3l-0.3,0.8l-0.5,0l-0.4-0.2l-0.2-0.4l0-0.6l0.4-0.3l1.1,0
		l0.1,0.2L760.5,161.3z M869.6,181l-0.8,1.6l1-0.1l0.8-0.6l0.6-1l1.6-1.6l1.5-0.9l0.5-0.2l1,0.5l1.4-1l1.5-0.8l-5.9,5.2l-1.3,0.8
		l-1.7,1.6l-1.7,1.2l-1.3,0.6l-6.1,4.3l-0.5,0.2l-0.6-0.1l-5.3,2.7l-2.3,0.7l-2,1l1.3-1.4l-0.1-0.4l-0.4-0.2l-0.8,0.3l-0.6,1.3
		l-1.3,0.7l-0.6-1.1l0.2-1l0.4-1l1-1.7l1.7-1.3l0.8-1l0.8,0.5l-0.1-0.9l0.4-0.6l0.5-0.4l1.3-0.3l0.7-0.3l0.4-0.4l0.5-0.2l1.6,0
		l1.4-0.5l1-0.9l1.2-0.5l3.2-1l3.1-1.2l1.1-1.1l2.1-2.7l1.4-1l-1.8,3L869.6,181z M845.7,197.3l-0.7,0.3l0.3-2.2l1.2-1.2l0.5,0.1
		l0.2,0.7l0,0.7l-0.7,1.1L845.7,197.3z"/>
	<path id="US-OH" class="st0" d="M744.6,215.6l-1.7,1.2l-0.2,0.9l0.8,1l0.5,1.3l0.3,1.7l-0.4,3.9l-1.2,6.2l-0.5,3.8l0.2,1.5
		l-1.1,2.2l-2.5,2.9l-1.8,1.8l-1.1,0.7l-1,0.1l-0.9-0.5l-0.8,0.5l-0.7,1.5l-0.8,0.9l-0.8,0.2l-0.6,1l-0.3,1.8l-0.4,1.1l-0.5,0.4
		l0.1,0.9l0.7,1.4l0,0.5l-0.2,0.1l-0.2,0l-0.5,0.4l-0.5,0.9l-0.2,0.1l-0.2-0.1l-0.4-1.1l-0.6-0.7l-0.9-0.3l-1,1.2l-1.1,2.7l-0.4,1.7
		l0.4,1.1l0.4,1.6l-0.3,0.7l-0.8,0.4l-0.5,1l-0.2,1.6l-1,1.1l-1.8,0.7l-2-0.4l-0.1,0l-2.5-1.6l-1.7-1.6l-0.9-1.6l-2,0.2l-3.1,2.1
		l-2.5,0.6l-1.9-0.9l-1.3-0.2l-1.2,0.5l-1.1,0.9l-1.1-0.3l-1.4-1.1l-2.1-0.6l-2.8-0.1l-2.1-1.2l-1.3-2.2l-1.3-1.4l-1.3-0.7l-1.3-0.1
		l-1.4,0.5l-1.1,0l-0.9-0.6l-1,0.2l-0.8,0.8l-0.8-7l-0.8-6.9l-0.8-6.9l-0.8-6.9l-0.8-6.9l-0.8-6.9l-0.8-6.9l-0.8-6.9l5.2-0.9
		l5.2-0.9l5.2-0.9l5.2-0.9l0.1-0.1l0,0.1l0.3,0.3l1.5,0l1,0.3l0.9,0.6l2.9,0.9l1,0.7l0.9,0.3l0.8,0l0.5-0.3l0.2-0.6l0.4-0.1l0.5,0.4
		l1.6,0.3l0.1,0.2l-4.2,1.6l-0.8,0.6l1.1,0.2l1.1-0.2l1-0.6l1.3-0.2l1.1,0l0.3-0.2l0.1-0.1l2.1,1l0.7,0.1l0.7-0.2l0.7-0.6l1.6-0.9
		l2.4-1.1l2.4-0.7l2.4-0.2l1.5-0.4l1.2-1l2.6-3.1l3.1-2.6l5.2-3.5l5.1-2.9l0.3,1.8l0.4,2.2l0.4,2.2l0.4,2.2l0.4,2.2l0.4,2.2l0.4,2.2
		l0.4,2.2l0.4,2.2l0.4,2.2l0.4,2.2l0.4,2.2L744.6,215.6z"/>
	<path id="US-OK" class="st0" d="M518.6,324.9l0.4,3l0.4,3l0.4,3l0.4,3l0.4,3l0.4,3l0.4,3l0.4,3l0,2.3l0,2.3l0,2.3l0,2.3l0,2.3
		l0,2.3l0,2.3l0,2.3l0,2.3l0,2.3l0,2.3l0,2.3l0,2.3l0,2.3l0,2.3l0,2.3l-4-1l-1-0.7l-1.9-0.8l-1.7-1.6l-3.3-2l-1.2-0.5l-0.4,0.1
		l-0.7,1L506,381l-0.9,0l-1.7-0.3l-0.3-0.2l-0.2-0.6l-0.7-0.4l-0.5,0.3l-2.5,0.8l-0.4,0.6l-1.4,0l-1.4-0.4l-3.5,1.3l-1.2,1l-1.3,0.4
		l-0.7,1l-0.4-0.1l-1.3-1.2l-1.4-0.4l-1.8-1.2l-0.1-1.1l-0.2-0.1l-0.3-0.1l-0.4,0.1l-0.8,0.9l-0.5,0.2l-0.5,0l-1.8-0.6l-0.7-1.1
		l-0.4-0.3l-0.4-0.1l-0.8,0.3l-0.4,1.2l-0.3,0.3l-0.8,0.2l0,0.6l-0.7,1.7l-0.4,0.3l-0.5-0.1l-0.5-0.4l-0.4-0.6l-0.1-0.5l0.3-1.3
		l-0.2-0.4l-0.4-0.1l-0.9,0.6l-0.8,0l-1,0.6l-0.6,0.2l-0.6-0.2l-0.9-1l-1.6-0.7l-0.6-1.2l-0.3-0.3l-0.3-0.1l-0.3,0l-0.6,0.4
		l-1.9,1.5l-0.8,0.5l-0.7,0.1l-0.7-0.2l-0.4-0.4l-0.1-1.6l-0.4-0.5l-1.7-1l-0.3-0.9l-0.1-1.3l-2,0.2l-2.5-0.2l-1.2,1.1l-0.6,0.2
		l-0.7-0.2l-2-1.6l-2.2,0.2l-1.2-0.2l-3-1.2l-2.4-0.2l-1-0.2l-0.5-0.3l-0.2-1.8l-0.9-1.5l-0.3-0.4l-1.6-1.1l-0.3,0l-0.2,0.2
		l-0.4,1.2l-0.5,0l-1.8-0.4l-1.7,0.3l-0.9-0.6l-3.1-2.9l-1.3-0.8l-1-0.3l0.1-2.5l0.1-2.6l0.1-2.5l0.1-2.5l0.1-2.5l0.1-2.5l0.1-2.5
		l0.1-2.5l0.1-2.5l0.1-2.5l0.1-2.5l0.1-2.5l0.1-2.5l0.1-2.5l0.1-2.5l0.1-2.5l-3.2-0.1l-3.2-0.2l-3.2-0.2l-3.2-0.2l-3.2-0.2l-3.2-0.2
		l-3.2-0.2l-3.2-0.2l-3.2-0.2l-3.2-0.2l-3.2-0.2l-3.2-0.2l-3.2-0.2l-3.2-0.2l-3.2-0.2l-3.2-0.2l0.2-2.7l0.2-2.7l0.2-2.7l0.2-2.7
		l4.2,0.3l4.2,0.3l4.2,0.3l4.2,0.3l3.9,0.3l3.9,0.2l3.9,0.2l3.9,0.2l3.9,0.2l3.9,0.2l3.9,0.2l3.9,0.2l3.9,0.2l3.9,0.2l3.9,0.2
		l3.9,0.1l3.9,0.1l3.9,0.1l3.9,0.1l3.9,0.1l3.9,0.1l3.9,0.1l3.9,0.1l3.9,0.1l3.9,0l3.9,0l3.9,0l3.9,0l3.9,0l3.9,0l3.9,0l3.9,0l3.9,0
		l3.9,0l3.9,0l3.9-0.1l0,2.7l0,2.7l0,2.7L518.6,324.9z"/>
	<path id="US-OR" class="st0" d="M94.8,59l1.6-0.1l1,0.7l1.1,1.4l0.6,3.2l0,5.1L98.9,71l0.8,1.3l1.3,0.4l5,2.2l0.8,0.2l0,0l1,0.1
		l3.5-0.9l3.3,0.3l3.7,1.2l2.2,1.2l0.6,1.1l2,0.7l5.1,0.3l5.5,0.7l3,0l3.6-0.7l7.8,0l3.7,0.7l2-0.3l0.5-0.3l0.2,0.1l3.8,1l3.8,1
		l3.8,1l3.9,0.9l3.9,0.9l3.9,0.9l3.9,0.9l3.6,0.9l0.2,1l1.1,2.1l1.8,2l1,1.9l0.3,1.8l-1.9,3.6l-4.2,5.4l-2.4,3.5l-0.6,1.6l-2,2.5
		l-3.5,3.4l-1.9,2.7l-0.4,1.9l0.6,1.3l1.6,0.7l1,0.9l0.4,1.1l-0.2,0.9l-0.8,0.7l-0.4,0.8l0,0.9l-0.6,1.5l-1.7,2.9l0,0.1l-1.2,5.1
		l-1.1,4.6l-1.1,4.6l-1.1,4.6l-1.1,4.6l-1.1,4.6l-1.1,4.6l-1.1,4.6l-5.8-1.4l-5.8-1.4l-5.8-1.4l-5.8-1.4l-5.7-1.5l-5.7-1.5l-5.7-1.5
		l-5.7-1.5l-4-1.1l-4-1.1l-4-1.1l-4-1.1l-4-1.1l-4-1.2l-4-1.2l-4-1.2l-4-1.2l-4-1.2l-4-1.2l-4-1.2l-4-1.2l-4-1.3l-4-1.3l-4.1-1.3
		l-1.1-3.1l0.4-3.9l0.3-1.6l1.6-4v-1.9L54,121l1.4-2.3l1.1-1.3l3.8-6.2l0.6-0.4l0.7,0.2l1.5-0.8l-0.4-0.4l-1,0.3l1.6-2.4l1.5-2
		l0.8-0.7l2.6-7.3l2.3-5.5l1.3-1.6l0.4-2l1.1-2.5l0.6-2.7l5.6-12.2l0.3-1.6l1.1-1.9l1.3-5.6l2.1-6l-0.2-0.9l0.1-0.9l0.4,0l0.4,1.1
		l3.4,1.1l2.4-0.1l0.7,0.5l0.6,1.4l1.1,0.6L94.8,59z"/>
	<path id="US-PA" class="st0" d="M833.5,181.9l-1.1,1l-0.4,0.6l-0.3,0.8l-0.6,2.6l-1.4,2.6l-1.2,1.4l0.1,0.6l1.2,1.6l0.1,0.6
		l-0.3,1.3l-0.9,0.8l0,0.7l0.2,1.1l0.5,1.9l0.4,0.3l1.3,0.4l1.6,2.3l1,0.1l5.1,4.3l-2.4,2.2l-1.5,1.7l-0.6,0.9l-1.1,2.2l-2.2,1.2
		l-1.1,1l-0.2,0.4l-1.6-0.2l-2,0.5l-0.6,0.4l-0.4,0.6l-0.8,1.9l-3.7,0.8l-3.7,0.8l-3.7,0.8l-3.7,0.8l-3.7,0.8l-3.7,0.8l-3.7,0.8
		l-3.7,0.8l-3.7,0.8l-3.7,0.7l-3.7,0.7l-3.7,0.7l-3.7,0.7l-3.7,0.7l-3.7,0.7l-3.7,0.7l-2.1,0.4l-2.1,0.4l-2.1,0.4l-2.1,0.4l-2.1,0.4
		l-2.1,0.4l-2.1,0.4l-2.1,0.4l-0.4-2.4l-0.4-2.4l-0.4-2.4l-0.4-2.4l-0.4-2.4l-0.4-2.4L745,218l-0.4-2.4l-0.4-2.2l-0.4-2.2l-0.4-2.2
		l-0.4-2.2l-0.4-2.2l-0.4-2.2l-0.4-2.2l-0.4-2.2l-0.4-2.2l-0.4-2.2l-0.4-2.2l-0.4-2.2l-0.3-1.8l2.7-1.6l1.2-0.9l1.2-0.9l0.6-0.5
		l0.7-0.5l4.4-3.6l0,0.1l0.5,2.8l0.5,2.8l2.2-0.4l2.2-0.4l2.2-0.4l2.2-0.4l2.2-0.4l2.2-0.4l2.2-0.4l2.2-0.4l2.2-0.4l2.1-0.4l2.2-0.4
		l2.2-0.4l2.1-0.4l2.1-0.4l2.2-0.4l2.1-0.4l2.1-0.4l2.2-0.4l2.1-0.4l2.1-0.4l2.1-0.4l2.1-0.5l2.1-0.5l2.1-0.5l2.1-0.5l2.1-0.5
		l2.1-0.5l2.1-0.5l2.1-0.5l2.1-0.5l2.1-0.5l2.1-0.5l1.5,0.8l0.8,1l2,0.4l0.5,0.4l0.2,0.7l0.8,0.6l0,1.1l0.2,1l0.5,1.2l0.7,1l0.9,0.8
		l0.9,0.5l3,0.4l0.7,0.5L833.5,181.9z"/>
	<path id="US-RI" class="st0" d="M885.3,160.8l-0.4,0.7l-0.8-0.6l-0.5-0.8l-0.6-0.4l-0.5-0.1l0.9,1.8l-0.6,1.7l0.8,3.8l-0.8,1.9
		l-3.5,2L878,171l-0.1-1.2l0.3-0.6l-0.3-1.3l-0.2-0.9l-0.4-1.4l-0.4-1.6l-0.5-1.8l-0.4-1.6l-0.3-1.1l-0.4-1.5l-0.3-1.1l1.1-0.3
		l1.6-0.5l1.5-0.4l0.9-0.3l1.1-0.3l0.3,0.9l0.5,1.4l0.7,0l0.3,1.2l0.2,0.8l0.7,0.3l0.7,0.3L885.3,160.8z M886.4,165.3l-0.6,0.8
		l-0.9,0.1l0.2-0.9l-0.1-1.2l0.1-1.3l0.1-0.4l0.4-0.5L886.4,165.3z M884.5,165.9l-0.3,0.5l-0.4-0.9l0-1.2l0.3-0.1l0.3,0.6
		L884.5,165.9z"/>
	<path id="US-SC" class="st0" d="M803.2,351.4l-0.2,0.1l-4,4l-1.1,1.6l-2.8,6l-0.3,3.6l-1.1-1.3l0-1.1l-0.1-0.9l-0.6,2.1l1.4,2.6
		l-0.6,1.2l-2.2,2.4l-1.3,0.6l-1.5,0.8l-0.1,2l-1.8,2.2l-1.1,1l-2.4-0.1l1,1.6l-0.6,1.4l-1.3,1.3l-1.7,1l-1,0.1l-0.8,0.5l-0.5,0.9
		l-1.6,1.1l-1.8-0.1l-2,0.1l-1,0.7l2,0.4l1.2,0.9l0,1.5l-0.4,0.7l-1,1l-0.5,0l-0.4-0.7l-0.6-1.4l-0.5,0.4l0,0.7l-0.4,0.3l-2.1-2.1
		l0.4,1.8l0.8,1.3l0.7,0.6l0.6,0.3l0.3,0.6l-0.9,1.7l-0.5,0.4l-1,0.4l-0.4,1.1l0.3,0.8l-3.9-1.1l-1.3-1.3l-0.3-2l-1.1-2.1l-2.7-3.4
		l-1.7-0.8l-1.4-2.4l-1.7-4.2l-2-2.6l-2.3-0.9l-1.7-1.2l-1-1.6l-0.9-1l-0.9-0.4l-0.6-0.8l-0.2-1.2l-1.5-1.4l-4-2.4l-1.1-1.7l-2-1.6
		l-4.7-3.2l0,0l-5.1-6.8l0,0l-0.7-1.4l-0.9-0.5l-1.4,0l-1.4-0.5l-2.2-1.6l0,0l-3.6-1.8l0.4-2.2l2.2-3l0.6-1.6l0.1,0l0.3-0.1l2.6-1.3
		l2.6-1.3l0.6,0l1.5-1.2l3.1-1.5l1.1-0.9l0.7,0.1l2.8-0.3l2.8-0.3l2.8-0.3l2.8-0.3l2.8-0.3l2.8-0.3l2.8-0.3l2.8-0.3l0.6,0.1l0.2,0.3
		l0.1,0.9l0.2,0.5l1.8-1.3l1.1,1l1.9,1.7l0.3,1.2l0.4,1.6l2.5-0.3l2.5-0.3l2.5-0.3l2.5-0.3l2.5-0.3l2.5-0.4l2.5-0.4l2.5-0.4l2.8,2
		l2.8,2l2.8,2l2.8,2l2.8,1.9l2.8,1.9l2.8,1.9L803.2,351.4z"/>
	<path id="US-SD" class="st0" d="M486.5,123.8l-0.5,2.1l-0.4,0.9l-0.7,0.9l-2.3,2l-0.6,0.7l0.1,0.6l0.4,0.8l1.1,1.9l0.6,0.8l2.5,1.3
		l1.1,1.6l0,4.8l0,4.8l0,4.8l0,4.8l0,4.8l0,4.8l0,4.8l0,4.8l-2.3,0.1l0.3,1.3l0.6,1.3l0.1,0.8l-0.1,0.6l-0.4,0.5l0.1,0.9l0.1,0.2
		l1,0.6l0.3,0.8l0.1,0.9l0,0.7l-0.6,1.2l-0.2,1.6l-0.8,2.4l-0.9,1.4l-0.2,0.7l0.1,0.6l1.3,1.5l0.1,0.6l0.4,0.8l0.4,1.8l-1.2-0.3
		l-1.2-0.9l-0.7-1.5l-2-1.4l-3.4-1.3l-2.3-1.2l-1.2-1l-2.8-0.5l-4.4,0.1l-2.9,0.5l-1.3,0.9l-2.8-1.1l-4.6-3.3l-6.2-0.2l-5.4-0.2
		l-5.4-0.2l-5.4-0.2l-5.4-0.2l-5.4-0.3l-5.4-0.3l-5.4-0.3l-5.4-0.3l-5.4-0.3l-5.4-0.4l-5.4-0.4l-5.4-0.4l-5.4-0.4l-5.4-0.4l-5.4-0.5
		l0.5-5.3l0.4-5.3l0.5-5.3l0.4-5.3l0.5-5.3l0.5-5.3l0.5-5.3l0.4-5.3l0.1,0l0.1,0l0.1,0l0.1,0l0-0.1l0-0.1l0-0.1l0-0.1l0.4-5l0.4-5
		l0.4-5l0.4-5l3.5,0.3l3.5,0.3l3.5,0.3l3.5,0.3l3.5,0.3l3.5,0.2l3.5,0.3l3.5,0.2l3.5,0.2l3.5,0.2l3.5,0.2l3.5,0.2l3.5,0.2l3.5,0.2
		l3.5,0.2l3.5,0.2l3.5,0.2l3.5,0.2l3.5,0.1l3.5,0.1l3.5,0.1l3.5,0.1l3.5,0.1l3.5,0.1l3.5,0.1l3.5,0.1l3.5,0.1l3.5,0.1l3.5,0.1l3.5,0
		l3.5,0L486.5,123.8z"/>
	<path id="US-TN" class="st0" d="M705.8,308.6l3.9-0.5l8.3-1.1l5.8-0.8l4.8-0.7l2.8-0.4l3.6-0.5l0.7-0.6l1.8-0.2l2.4-0.3l-0.5,1.7
		l0.1,1.1l-0.2,1.7l0.2,1.1l-1.3,0.2l-0.7,0.4l-0.9,0.9l-1.8,4.2l-0.8,0.5l-1.6-0.8l-1.9,0.7l-1.1,0.9l-1.6,2.2l-0.6,0.7l-0.5,0.3
		l-0.4,0L726,319l-0.3-0.9l-0.3-0.3l-0.6,0.1l-0.9,0.5l-0.9,0.8l-0.8,1.3l-1.3,0.1l-0.2,0.3l-0.1,1.3l-0.4,1l-0.6,0.8l-2.2,0.9
		l-2.5,2.3l-3.6,2.6l-3.6,1l-1.5,0.6l-1,0.7l-2,2.4l-0.7,2.8l-1.1,0.7l-1.8,0.2l-0.5,0.3l-0.3,1.1l-0.1,4.6l-5.7,0.7l-5.7,0.6
		l-5.7,0.6l-5.7,0.6l-2.8,0.3l-2.8,0.3l-2.8,0.3l-2.8,0.3l-2.8,0.3l-2.8,0.3l-2.8,0.3l-2.8,0.2l-2.8,0.2l-2.8,0.2l-2.8,0.2l-2.8,0.2
		l-2.8,0.2l-2.8,0.2l-2.8,0.2l-2.8,0.2l-0.2,0l0.2,0.2l0.3,0.2l-4.7,0.4l-4.7,0.4l-4.6,0.4l-4.6,0.3l-4.7,0.3l-4.6,0.3l-4.7,0.3
		l-4.5,0.3l0-0.1l0.6-0.9l1.9-1.6l0.7-2l-0.4-2.3l0.6-2.2l1.6-2l0.6-1.9l-0.4-1.8l0.7-1.6l1.9-1.3l0.2-0.5l-0.1-0.4l-0.1-0.4l0-0.2
		l0.1-0.4l0.4-0.2l0.6-0.2l0.2-0.3l0-0.5l-0.4-0.8l0-0.4l0.1-0.6l0.9-1.6l0-1.3l-0.8-1.1l0.3-0.6l0.4-0.2l0.6-0.1l0.2-0.3l0-0.3
		l-0.5-0.7l0.1-0.6l0.8-0.5l0.2-1.2l-0.4-1.6l1.2-0.1l0,0.1l0.2,0.2l0.3-0.2l0,0l3.4-0.2l3-0.2l3-0.2l3-0.2l3-0.2l3-0.2l3-0.2
		l2.7-0.2l0,0l-0.2-1.9l-0.9-2.1h0.1l2.3,0l1.5,0l0.6,0.6l5.7-0.6l5.7-0.7l5.7-0.7l5.7-0.7l5.9-0.4l5.9-0.4l5.9-0.5l5.9-0.5l5.9-0.5
		l5.9-0.5l5.9-0.6l5.9-0.6l0.1-0.1l0.1-0.1l0.1-0.1l0.1-0.1l0.1-0.1l0.1-0.1l0.1-0.1L705.8,308.6z"/>
	<path id="US-TX" class="st0" d="M521.9,385.7l0.9,1l0.8,0.3l0.2,0.4l0.4,0.1l0.4-0.1l0.7-0.5l1,0.1l0.8-0.2l1.7,0.2l0.9,0.5
		l0.1,2.9l0.1,2.9l0.1,2.9l0.1,2.9l0.1,2.7l0.1,2.7l0.1,2.7l0.1,2.7l0.1,2.7l0.1,2.7l0.1,2.7l0.1,2.7l2.6,2.6l1.1,1.8l0.4,0.9
		l0.2,3.1l0.3,0.7l1.3,1.1l0,0.8l1.4,2.2l0,1.1l1.3,2.4l0.7,0.6l0.2,1.6l0.4,1.2l-0.6,0.9l0.3,1.2l-0.3,1.1l-0.2,1.5l-0.8,2.4
		l-0.7,1.2l-1,2.2l0.1,1.8l-0.5,2l0,0.8l0.6,1.3l0.3,3.6l-0.3,0.8l-1.2,2.2l-0.9,0l-1.9,3.6l1.2,2l-0.1,0.7l-3.9,0.5l-8.9,4.2
		l-3.5,2.2l0.2-0.7l4.2-2.9l-1.5-0.4l-2.4,0.7l-0.9-0.3l1-2.3l-0.4-2l-1.7,0l-1.1,1.6l-0.8-0.1l-1-0.7l-0.8,0.2l0.6,3.7l1.1,1.5
		l0.9,1.9l-2.4,2.4l-2.3,2l-0.2,1.9l-2.3,2.5l-2.2,1.4l-5.1,3.3l-1.5,0.7l-2.3,1.6l-3.2,1.2l-3.1,1.8l-1,0.3l2-1.6l2.3-1.5l-2,0.2
		l-3.1-0.7l-1.9,0l0,0.6l-1.4,0.8l-1.5-1.2l-0.6-0.8l-0.3-0.7l-0.6-0.2l-0.6,0.3l2.2,4.8l0.9,0.2l1,0.5l-1.3,1.1l-1.4,0.8l-2.2,0.5
		l-1.8-1.8l-0.4,2.2l-0.3,2.2l-0.6,0.6l-1,0.8l-0.5-0.6l-0.2-0.8l-0.6,0.7l-0.9,0.6l-1.5,0.1l-1.2,0.3l0,0.9l0.3,0.9l2.1-0.7
		l-0.8,2.3l-1.9,2.3l-1.6,0.5l-2.4-0.4l-0.6,0.2l-0.5,0.5l2.7,3.6l-1.8,5.4l-1.2,2l-0.8,0.2l-0.9,0l-3-1.8l-1.6-1.4l1.4,3.7l4,1.1
		l0.2,1.4l0,1.2l-0.8,1.4l-0.8,1.8l0.5,1.3l0.6,3.2l0.5,1.5l0.5,4.5l0.6,2l3.6,7.2l1.2,0.1l0.2,0.8l-0.1,1.5l-2.7,0.4l-1.1,0.6
		l-0.2,0.6l-0.2,0.3l-0.3,0l-1.3-0.4l-2.9-2.1l-4.2-1.3l-5.5-0.6l-3.8-1.1l-2-1.6l-2.1-1l-2.2-0.4l-1.8-0.9l-1.4-1.4l-2.1-1
		l-2.8-0.5l-1.8-1.1l-1.2-2.6v0l-1-4.3l-1.3-2.7l-2.6-3.4l-0.2-0.4l0,0v-0.5l0.4-1.9l-0.2-1.4l-0.8-1.2l-0.2-1.2l0.5-1.2l0.1-1.5
		l-0.3-1.8l-1.7-2l-3-2.2l-2.5-3.1l-2-4l-2-2.8l-2-1.6l-1.3-1.9l-0.7-2.2l-0.2-1.3l0.3-0.3l-1.2-2.5l-2.6-4.6l-1.5-3.3l-0.3-2.1
		l-1.7-2.5l-3-3l-1.6-1.9L400,473h0l-4.8-4l-1.3-2.4l-1.1-0.8h-1.3l-0.7-0.3V465l-0.4,0l-0.8,0.4l-2.6-0.1l-4.5-0.6l-3.2-0.9
		l-1.9-1.1l-1.4,0l-0.9,1.2l-1.8,0.7l-2.6,0.2l-2.4,2.2l-2.2,4.2l-1,2.7l0.1,1.2l-0.6,0.9l-1.3,0.5l-1.3,1.2l-1.4,1.8l-1.6,0.8
		l-1.7-0.2l-3-1.8l-4.3-3.3l-3.4-2.1l-2.5-0.9l-2.2-1.6l-1.8-2.2l-1.7-1.5l-1.6-0.8l-1.7-2.4l-1.9-4l-0.8-3l0.3-3.1l-2.2-7l-1.2-3
		l-1-1.4l-2-1.8l-3.1-2.2l-4-4.2l-4.9-6.1l-3.5-3.8l-2.1-1.4l-1.7-2.2l-1.3-3.1l-1.4-2l-0.2-0.1l-2.1-1.3l0,0l-1.4-4.1l0.1,0
		l4.1,0.5l4.1,0.5l4.1,0.4l4.1,0.4l4.1,0.4l4.1,0.4l4.1,0.4l4.1,0.4l4.1,0.4l4.1,0.4l4.1,0.4l4.1,0.4l4.1,0.4l4.1,0.3l4.1,0.3
		l4.1,0.3l0.5-6l0.5-6l0.5-6l0.5-6l0.5-6l0.5-6l0.5-6l0.5-6l0.5-6l0.5-6l0.5-6l0.5-6l0.5-6l0.5-6l0.5-6l0.5-6l0.7,0l3.2,0.2l3.2,0.2
		l3.2,0.2l3.2,0.2l3.2,0.2l3.2,0.2l3.2,0.2l3.2,0.2l3.2,0.2l3.2,0.2l3.2,0.2l3.2,0.2l3.2,0.2l3.2,0.2l3.2,0.2l3.2,0.1l-0.1,2.5
		l-0.1,2.5l-0.1,2.5l-0.1,2.5l-0.1,2.5l-0.1,2.5l-0.1,2.5l-0.1,2.5l-0.1,2.5l-0.1,2.5l-0.1,2.5l-0.1,2.5l-0.1,2.5l-0.1,2.5l-0.1,2.5
		l-0.1,2.5l1,0.3l1.3,0.8l3.1,2.9l0.9,0.6l1.7-0.3l1.8,0.4l0.5,0l0.4-1.1l0.2-0.2l0.3,0l1.6,1.1l0.3,0.4l0.9,1.5l0.2,1.8l0.5,0.3
		l1,0.2l2.4,0.2l3,1.2l1.2,0.2l2.2-0.2l2,1.6l0.7,0.2l0.6-0.2l1.2-1.1l2.5,0.2l2-0.2l0.1,1.3l0.3,0.9l1.7,1l0.4,0.5l0,1.6l0.4,0.4
		l0.7,0.2l0.7-0.1l0.9-0.5l1.9-1.5l0.6-0.4l0.3,0l0.3,0.1l0.3,0.3l0.6,1.2l1.6,0.7l0.9,1l0.6,0.2l0.6-0.2l1-0.6l0.8,0l0.9-0.6
		l0.4,0.1l0.1,0.4l-0.3,1.3l0.1,0.5l0.4,0.6l0.5,0.4l0.5,0.1l0.4-0.3l0.7-1.7l0-0.6l0.8-0.2l0.3-0.3l0.4-1.2l0.8-0.3l0.4,0.1
		l0.4,0.3l0.7,1.1l1.8,0.6l0.5,0l0.5-0.2l0.8-0.9l0.4-0.1l0.3,0.1l0.2,0.1l0.1,1.1l1.8,1.2l1.4,0.4l1.3,1.2l0.4,0.1l0.7-1l1.3-0.3
		l1.2-1l3.5-1.3l1.4,0.4l1.4,0l0.4-0.6l2.5-0.8l0.5-0.3l0.7,0.4l0.2,0.6l0.3,0.2l1.7,0.3l0.9,0l1.7-0.8l0.7-1l0.4-0.1l1.2,0.5l3.3,2
		l1.7,1.6l1.9,0.8l1,0.7L521.9,385.7z M513,482.3l-0.9,0.2l4.1-3.4l0.9-1.1l1.1,0l-1.8,1.9L513,482.3z M480.2,503.8l-0.7,0.1
		l0.9-1.2l1.4-0.6l3.1-2.2l1.3-0.1l0.7-0.8l0.3-0.1l-0.2,0.9l-2.5,1.3L480.2,503.8z M475.3,509.2l-0.4,0l0.9-1.8l0.2-0.7l1.5-2.2
		l0.8-0.3l0.3,1l-1.6,1.6L475.3,509.2z M468.6,522.1l-0.6,1.2l0.2-1.9l1.6-4.2l3.3-5.5l1.3-0.9l-3.7,6L468.6,522.1z M471.8,546.9
		l-0.3,1l-1.6-4.7l-2.5-10.7l0-6.1l0.4-2.1l0.5,8.6l2.8,10.9L471.8,546.9z"/>
	<path id="US-UT" class="st0" d="M256.7,188.3l-0.4,2.6l-0.4,2.6l-0.4,2.6l-0.4,2.6l-0.4,2.6l-0.4,2.6l-0.4,2.6l-0.4,2.6l4,0.7
		l4,0.7l4,0.6l4,0.6l4,0.6l4,0.6l4,0.6l4,0.6l-0.8,5.3l-0.8,5.3l-0.8,5.3l-0.8,5.3l-0.8,5.3l-0.8,5.3l-0.8,5.3l-0.8,5.3l-0.8,5.3
		l-0.8,5.3l-0.8,5.3l-0.8,5.3l-0.8,5.3l-0.8,5.3l-0.8,5.3l-0.8,5.3l-5.3-0.8l-5.3-0.8l-5.3-0.8l-5.3-0.8l-5.3-0.8l-5.3-0.9l-5.3-0.9
		l-5.3-0.9l-5.2-0.9l-5.2-0.9l-5.2-1l-5.2-1l-5.2-1l-5.2-1l-5.2-1L189,284l0.7-3.3l0.7-3.3l0.7-3.3l0.7-3.3l0.7-3.3l0.7-3.3l0.7-3.3
		l0.7-3.3l0.7-3.3l0.7-3.3l0.7-3.3l0.7-3.3l0.7-3.3l0.7-3.3l0.7-3.3l0.7-3.3l0.7-3.3l0.7-3.3l0.7-3.3l0.7-3.3l0.7-3.3l0.7-3.3
		l0.7-3.3l0.7-3.3l0.7-3.3l0.7-3.3l0.7-3.3l0.7-3.3l0.7-3.3l0.7-3.3l0.7-3.3l0.7-3.3l2.9,0.6l2.9,0.6l2.9,0.6l2.9,0.6l2.9,0.6
		l2.9,0.6l2.9,0.5l2.9,0.5l2.9,0.5l2.9,0.5l2.9,0.5l2.9,0.5l2.9,0.5l2.9,0.5l2.9,0.5L256.7,188.3z"/>
	<path id="US-VA" class="st0" d="M794.6,234.4l1.1,0.6l2.4,0.5l1.1,0.7l-0.2,1l0.1,0.7l0.5,0.5l3.2,0.6l2.2,1.4l1.2,0.3l0.4,0.1
		l0.9,0.3l0.5,0.5l0.2,2.4l-0.5,1.3l-1,1.1l-1.2,1.9l-0.1,1.6l0.1,2.9l0.9,0.8l0.7,0.1l1.9-1l1.1,0.1l3,2.8l4.6,0.4l1.7,0.5l1.7,1.5
		l2.1,0.6l1.8,1.1l0.2,0.9l-0.3,1.2l0.1,1.6l-0.4,1.1l-1.5,0.4l-1,0l-6.1-4.2l-0.7-0.4l-2.4-2.4l-2.5-1l-0.7,0.2l3.6,2.1l1.7,1.7
		l2.8,2.2l1.8,0.8l1.6,1.5l1.3,0.6l3.2,0.5l-0.8,1.1l1.8,0.4l0.5,1.3l0.2,1.6l-2.4-0.1l0.2,1.1l0.3,0.6l-0.9,0.8l-1.6-0.4l-4.5-3.3
		l0.1,0.5l0.4,0.6l2.7,2.2l2.2,1.2l1.8,0.4l1.5,1l0.6,0.7l0.6,1.1l-0.7,1l-0.9,0.7l-1.2-0.6l-0.9-0.7l-1.9-1.1l-0.8-1.5l-1.2,0.3
		l-5.5-1l-4.1,0.6l0.5,0.3l0.6,0.2l3.3-0.2l1.5,0.7l2.8,0.3l1.6-0.1l1.2,2.5l2.5,1.3l0.6,1.3l1.5-0.2l2.3-1.9l1.8,0.1l2.5-0.2
		l0.8,0.9l0.9,1.9l1.4,2.1l1.1,2.1l-0.5,0.1l-1.3,0.3l-4.2,0.9l-6.1,1.3l-6.1,1.2l-6.1,1.2l-6.1,1.2l-6.1,1.2l-6.1,1.1l-6.1,1.1
		l-6.1,1.1l-6.1,1.1l-6.1,1.1l-6.1,1l-6.1,1l-6.1,1l-6.1,1l-6.1,0.9l-0.3-0.3l-2.4,0.3l-1.8,0.2l-0.7,0.6l-3.6,0.5l-2.8,0.4
		l-4.8,0.7l-5.8,0.8l-8.2,1.1l-3.9,0.5l1.6-1.2l2.5-0.9l4.3-2.4l1.6-2l2.3-1.6l0.8-1.7l1.5-1.7l0.4-1.7l0.2-0.3l2.6-1.9l2.6-2.3
		l5.6-6.1l0.2,0.7l-0.1,0.8l0.7,0.8l0.7,1.3l0.8,0.7l0.9,0.5l1.4,0.4l1.7,0.8l1.3,0.1l0.4-0.1l1.2-1.2l1-0.7l1-1.3l2.3,1.1l0.8-0.1
		l1.9-1l1.9-0.5l0.4-0.3l0.6-0.7l-0.2-1.2l0.1-0.3l0.3-0.2l0.4-0.1l0.9,0.3l0.8-0.1l3.3-2l0.3,0.1l0.6,0.6l1.4-1.1l0.8-0.9l0.2-1.2
		l0.6-1.3l-0.2-0.5l-0.6-0.6l0.4-1.7l0.7-1.7l2.8-5.3l0.6-3l1.2-2.1l0.2-1.5l0.9-1.6l0.2-3.1l0.4-0.7l0.7-0.2l0.8,0.2l0.6,0.4
		l0.5,0.8l1.9,0.4l1.5-0.2l0.9-0.8l0.4-1.1l0.5-2.1l0.6-1.3l0.2-1.5l0.3-1.1l0.7-0.8l2-0.3l0.9-1.1l0.6-1.2l0.4-0.4l0.6-0.1l1.5-2
		l1.7-3.8l0.1-2.2l0.3-1.6l-0.1-1.6l0.3-0.9l2.4,1.3l1.4,0.7l3.2,1.7l2.1,1.1l0.4-1.8L794.6,234.4z M840.8,252.8l0.4-0.2l0,0l-1,3.6
		l-0.7,0.5L840.8,252.8z M834.5,256l0.4-1.1l2.4-0.9l1.5-0.6l-1.8,9l0.5,1.5l-0.6,0.7l-1,0.7l-0.9,1.2l-0.5,1.2l-0.1,2.8l-0.7,3.3
		l-1.1-1.1l-0.4-1l-0.3-2.9l0.4-4.9l0.9-3.2l0.9-1.6L834.5,256z"/>
	<path id="US-VT" class="st0" d="M860.7,144.9l-1.5,0.3l-1.5,0.3l-1.5,0.3l-1.5,0.3l-1.5,0.3l-1.5,0.3l-1.5,0.3l-1.5,0.3l-0.7-1.2
		l-0.1-1.1l-0.3-1.5l-0.4-1.9l-0.5-2.1l-0.7-2.9l-0.4-1.9l-0.4-1.7l-0.6-2.4l-1.2-1.1l-0.4-0.1l-0.2,0.2l-0.4,1l-0.2,0l-0.2-0.2
		l-0.2-0.8l-0.1-2.9l-0.2-0.9l-0.5-1.5l-1.5-3.2l-0.2-0.7l0-1.2l0.1-1.3l0.4-1.4l0-0.5l-0.6-2l-0.3-2l-1.7-2.6l-0.6-3.8l-0.7-1.7
		l-0.1-1.7l-0.5-1.3l2.5-0.7l6.1-1.6l6.1-1.6l6.1-1.6l6.1-1.7l-0.1,0.5l0.8,1.6l-0.8,3.3l0.3,0.9l1.4,2.3l0.1,0.6l-0.2,0.4l0,1.1
		l-0.2,0.8l-0.5,0.8l-1.7,2.1l-0.5,0.6l-1.8,1.1l-0.3,0.7l0.6,3.9l-0.1,2.3l0.1,1l-0.4,1.9l-0.2,2.1l-0.7,1.9l-0.1,2.1l-0.2,0.8
		l0,1.3l0.7,4.2l0.1,2.3l0.5,4l-0.1,1.1l-0.2,0.6l0,1.8l0.1,0.6l0.3,0.5l1.2,1.1L860.7,144.9z"/>
	<path id="US-WA" class="st0" d="M185.1,86.8l-3.6-0.9l-3.9-0.9l-3.9-0.9l-3.9-0.9l-3.9-0.9l-3.8-1l-3.8-1l-3.8-1l-0.2-0.1l-0.5,0.3
		l-2,0.3l-3.7-0.7l-7.8,0l-3.6,0.7l-3,0l-5.5-0.7l-5.1-0.3l-2-0.7l-0.6-1.1l-2.2-1.2l-3.7-1.2l-3.3-0.3l-3.5,0.9l-1-0.1l0,0
		l-0.8-0.2l-5-2.2l-1.3-0.4L98.9,71l0.2-1.6l0-5.1L98.5,61l-1.1-1.4l-1-0.7L94.8,59l-0.4-0.4l-0.7-0.3l-1.2-1.5l-0.5-1.3l-2.7-0.8
		l-0.3-0.8l-3.1-0.3l-0.7-1l-1.7-0.1l1-1.8l0.7-2.4l0.8-2.3l-0.2,1.8l0.4,2.1l1.1-1.9l1.1-2.5l-0.7-1.3l-1.4-1.3l0.2-2.6l4.4-0.9
		l-1.9-1.1l-0.5-1.2L87.9,37l-0.3,0.7L87,38.5l0.1-1.3l0.4-1.5l0.4-2.6l-0.2-4.5l0.8-5.5L88,20l-1.4-3.2l-0.1-1.6l0.7-3.8l1.2-2.7
		l0.2-2.1l1,0.5l2.3,2.4l3.1,2.3l0.8,1.2l1.5,1.2l9.1,4l0.6,0.1l1.4-0.2l0.5,0.2l0.9,1.9l0.6,0.4l0.9,0.2l0.7-0.1l1.4-0.6l0,0.4
		l-0.3,0.9l0,1.4l0.3,1.9v1.1l-2.6,2.4l-0.3,0l0.2-1l-0.2-0.3l-4.7,4l-1.8,2l-0.4,1l-0.2,0.6l0.4,0.3l1.1,0.1l1.8-0.5l0.1-0.2
		l-1.5-0.1l-0.7-0.2l0.4-1.1l0.3-0.5l1.4-1.4l1.3-0.7l1.7-0.6l1.1-0.6l0.9-1.1l2-1.1l0.4-0.3l0.3-1.3l0.2-0.2l0.7,0.4l-0.3,2.2
		l-0.5,0.9l-1.7,0.8l-0.3,0.4l-0.2,1.7l-0.2,0.1l-0.4-0.3l-0.2,0.1l0.7,2.1l0,1.5l-0.3,1.2l-1,2.2l-0.5,0.3l-0.6-0.3l-0.6-1
		l-0.3,0.2l-1.2,1.6l-0.2-0.2l0.2-2.2l-0.2-0.2l-1.6,0.6l-0.8,0.8l-0.9,1.3l-0.8,0.5l1.6,0.6l1.5,0.1l0.9,1.1l0.4,0.1l1.3-0.4
		l0.5-0.4l1.5-2l0.6-0.3l0.7,0.2l0.7-0.1l1.3-0.9l0.2-0.5l0.5-2.9l0.6-1.5l0-0.5l-0.3-0.6l0.2-0.5l0.6-0.7l0.2-0.7l-0.1-0.7l0.3-0.7
		l1.3-1.3l0.4-0.7l1.5-1.3l-0.1-0.7l-0.5-1l-0.3-0.8l-0.2-1.2l-0.3-0.5l-0.2,0.1v1.9l-0.2,0.1l-1.1-1.4l-0.1-0.7l0.1-0.9l0.3-0.6
		l0.9-0.4l0.9,0l0.1-0.5l-0.6-2l-0.5-1l-0.4-0.5l-0.7-0.3l-0.2-0.4l0-0.4l0.3-0.5l0.4,0l1.1,0.6l0.7-0.2l0.1-0.7l-0.1-0.4l0.7-2.4
		l0.1-2.1l-0.1-0.4l-0.2-0.1l-0.3,0.2l-0.8-0.2l-0.3-0.8l-0.1-1.4l0-3.2l1.4,0.4l5.8,1.7l5.8,1.7l5.8,1.7l5.8,1.7l5.8,1.6l5.9,1.6
		l5.9,1.6l5.9,1.6l5.9,1.5l5.9,1.5l5.9,1.5l5.9,1.4l5.9,1.4l1.4,0.3L197,27l-0.8,3.4l-0.8,3.4l-0.8,3.4l-0.8,3.4l-0.8,3.4l-0.8,3.4
		l-0.8,3.4l-0.8,3.4l-0.8,3.4l-0.8,3.4l-0.8,3.4l-0.8,3.4l-0.8,3.4l-0.8,3.4l-0.8,3.3l-0.2,0.2l-0.2,0.5l0.1,1.5l0.5,2.3l0,1.5
		l-0.6,0.7l-0.1,1.5L185.1,86.8z M114.7,1.1l0.5,0.2l-0.3,0.3l-0.2-0.1L114.7,1.1z M116.8,9l0,0.5l-0.7,0.3l-0.4,0l-0.4-0.9
		l-0.2-0.2L115,9.8l-0.2,0.3l-1.1-1.1l-0.1-0.6l0.5-0.4l1-0.3l0.3,0L116.8,9z M112.6,11.5l0.2,0.8l-1.3-0.9l-0.5-0.6l-0.1-0.4
		l0.2-1.3l0.2-0.4l0.7,0.1l0.8,1.9L112.6,11.5z M114.8,13.8l-0.3,0.1l-0.7-0.5l-0.3-0.6l0-0.6l0.6-1l0.4-0.2l0.2,0.1l-0.2,1l0.3,1.2
		L114.8,13.8z M116.5,20.5l-0.1,2.9l0.6-1l1.3,2.5l-0.3,1l-0.3,0.3h-0.4l-0.3-0.4l-0.1-0.8l-0.3-0.5l-0.8-0.5l-0.2-0.9l0-0.6
		l0.4-1.5l-0.1-0.5l-0.4-0.2l-0.4-0.5l-0.4-1.3l0-0.3l0.6-0.8l1.2-1.2l0.8-0.5l0.3,0.2l0.3,0.6l0.3,0.9l-0.3,0.5l-2.4,0.5l-0.1,0.2
		l0.9,0.6l0.3,0.4L116.5,20.5z M114,32.4l-0.2,0.4l-0.6-0.7l-0.1-0.5l0.3-1l0.4-0.6l0.2-0.1l0.4,0.4l0.1,0.2L114,32.4z M114.2,37
		l-0.2,0.4l-0.7,0.2l-0.2-0.2l0.1-0.6l-0.1-0.1l-0.8,0.5l0.4-1.3l0.7-1.3l0.3,0l0.1,1L114.2,37z M106.6,39l-0.3,0.4l-0.2-0.1l-0.2-1
		l0.1-0.6l0.5-0.3l0.1,1.4L106.6,39z"/>
	<path id="US-WI" class="st0" d="M576.8,98.1l-0.5,0.4l-0.2-0.2l0.1-0.7l0.2-0.4l0.4-0.1l0.2,0.1l0,0.4L576.8,98.1z M572.7,100.4
		l-0.2,0.2l-0.6-0.3l-0.1-0.3l0.1-0.3l0.3,0.1l0.4,0.4L572.7,100.4z M577.6,107.3l-0.1,0.2l0.3,0.8l0.7-0.2l0.4,0.4l0.5,0.2l0.9,0.3
		l0.5,0.9l0.5,0.9l0.5,0.9l0.5,0.9l1.9,0.4l1.9,0.4l1.9,0.4l1.9,0.4l1.9,0.4l1.9,0.4l1.9,0.4l1.9,0.4l1.1,0.5l1.1,0.5l1.1,0.5
		l1.1,0.5l1.6,0l1.5,0.2l2-0.2l2.1,0.3l3.1,0.7l0.8,0.8l0.2,0.6l-0.2,1.4l3,0.9l1.3,0.8l0.5,0.6l0,0.6l0.4,1.3l-0.2,0.7l0.1,1.2
		l-0.5,1.3l-0.2,0.7l0,0.6l0.2,0.4l0.4,0.1l1.1-0.2l1.1-0.5l0.5,0.2l0.1,0.2l0,0.4l-0.7,2.3l0.1,0.9l0.4,0.8l0.7,0.8l0.7,0.2l0,0.6
		l-0.2,1.1l-0.8,0.9l-2.1,1.3l-0.3,0.8l0,0.6l-1.2,2.6l-0.6,1.6l-0.3,1.6l0.2,1l0.8,0.3l0.6-0.2l0.4-0.8l0.7-0.7l0.9-0.7l0.6-0.9
		l0.8-2.2l1-1.3l0.6-0.1l0.2,0l1.1-0.7l0.9,0.1l0.6,0.8l0.6,0.5l0.2,0.5l-0.2,1.2l-0.4,1.3l-0.6,1.4l-0.5,2l-0.4,2.7l0,2l0.5,1.3
		l-0.2,1.2l-1,1.1l-0.7,1.5l-0.5,1.8l-0.2,1.5l0,1.2l0.2,0.9l0.5,1.2l0,0.6l-0.9,2.8l-0.3,1.3l0,1l-0.2,1l-0.7,2.1l-0.2,1.2l0,1
		l0.4,1.7l-0.1,0.6l0.1,0.4l0.2,0.3l0,0.5l-0.2,0.8l0.1,0.6l0.4,0.4l0.3,0.8l0.2,1.2l0.4,1l0.6,0.8l0.2,1.2l-0.2,1.6l0.1,2.9l0.1,1
		l-2,0.2l-7.1,0.6l-7.1,0.5l-7.1,0.5l-7.1,0.4l-7.1,0.4l-7.2,0.4l-0.1-0.2l-0.6-1.9l-1.7-1.3l-2.7-0.8l-1.8-1.4l-0.9-1.9l-0.6-2.2
		l-0.3-2.5l0.1-2.1l0.5-1.7l-0.2-1.1l-1-0.5l-0.7-0.7l-0.4-0.9l-0.2-1.3l-0.8-6.3L567,165l-1-1.1l-2.1-1.3l-3.2-1.4l-2-1.4l-1.2-2
		l-2.3-2.3l-1.5-0.9l-1.4-0.3l-1.1-0.7l-0.9-1.1l-1.2-0.7l-1.5-0.2l-1.7-0.9l-2-1.7l0-0.1l-0.4-1.2l0.2-0.7l0.2-2.4l-0.1-0.8
		l-0.5-2.2l0.5-0.9l-0.2-2.7l0.2-0.9l0.9-2.2l0-1.1l-0.4-1.3l-0.8-1l-2.1-1l-0.1-1.4l0.3-1l1.3-2l0.7-1.7l0.6-0.8l3.9-2.7l0.9-0.2
		l0.6-0.7l0.5-0.3l-0.1-3.1l-0.1-3.1l-0.1-3.1l-0.1-3.1l1-0.3l0.4-0.8l1-1.2h0.3v0l0.5,0.5l1.3,0.7l1,0.1l1.3-0.2l4.9-1.6l2-1.1
		l2-1.7l0.2-0.1l0.9,0.2l0.3,0.1l2.6-2l0.9-0.3l0.7,0l0.9,0.7l0.2,0.4l-0.2,0.9l-0.7,1.3l-0.3,1.1l0.1,0.9l-0.3,0.9l-0.8,1.3
		l0.3,0.3l2.2-1l0.3-0.4l0-0.2l-0.2-0.2l0.2-0.1l1.8,1.1l1.2,0.6l1,0.3L577.6,107.3z M575.1,100.5l-0.5,0.2l-1.1-0.1v-0.3l1.1-0.5
		l0.5-0.2l0.1,0.2L575.1,100.5z M572.9,103.5l-0.8,0.3l-0.4,0l0.1-0.4l0.4-0.5l1.9-1.3h0.3l0.1,0.3l-0.9,0.7l-0.3,0.3l0,0.3
		L572.9,103.5z M632.6,129.6l-0.4,0.3l-0.8,0l-0.3-0.4l0.3-1.3l0.2,0.2l0.7-0.1l0.3,0.1l0.1,0.3L632.6,129.6z M630.9,132.1l-0.2,0.3
		l-0.5-0.1l-0.1,0.4l0.2,1l-0.1,0.5l-0.4,0v0.2l0.4,0.4l0.1,0.5l-0.2,0.5l-0.2,0.3l-0.3,0l-0.4,0.6l-0.4,1.3l-0.1,0.7l0.2,0.2
		l-0.1,0.4l-1.2,2l-0.5,0.2l-0.6-0.2l-0.5-0.5l-0.3-0.8l-0.1-0.6l0.1-0.5l1.1-1.8l0.4-1.1l0.2-1.2l0.5-0.8l0.8-0.4l0.6-0.8l0.4-1.2
		l0.5-0.6l0.7,0.1l0.3,0.4L630.9,132.1z"/>
	<path id="US-WV" class="st0" d="M764.8,232l0.4,2.7l0.4,2.7l0.4,2.7l0.4,2.7l1.8-1.9l1-0.8l2.9-4.1l0.5-0.1l1.3,0.3l2.1-2.9
		l0.1-0.9l0.2-0.3l0.3,0l0.2,0.2l0,0.5l0.2,0.2l1.1,0.4l1.5,0l0.2,0l1.3-0.3l0.5-0.6l0.1-1l0.5-0.7l1.3-0.5l2.1-1.4l1.4-0.1l1.3,0.7
		l1.2,0.2l1.2-0.3l0.5,0.1l-0.2,0.6l0.4,0.5l1,0.5l0.4,0.5l-0.2,0.6l0.2,0.4l0.5,0.2l0.4,0.6l0.3,0.9l0.2,0.1l-0.5,2.7l-0.4,1.8
		l-2.1-1.1l-3.2-1.7l-1.4-0.7l-2.4-1.3l-0.3,0.9l0.1,1.6l-0.3,1.6l-0.1,2.2l-1.7,3.8l-1.5,2l-0.6,0.1l-0.4,0.4l-0.6,1.2l-0.9,1.1
		l-2,0.3l-0.7,0.8l-0.3,1.1l-0.2,1.5l-0.6,1.3l-0.5,2.1l-0.4,1.1l-0.9,0.7l-1.5,0.2l-1.9-0.4l-0.5-0.8l-0.6-0.4l-0.8-0.2l-0.7,0.2
		l-0.4,0.7l-0.2,3.1l-0.9,1.6l-0.2,1.5l-1.2,2.1l-0.6,3l-2.8,5.3l-0.7,1.7l-0.4,1.7l0.6,0.6l0.3,0.5l-0.6,1.3l-0.2,1.2l-0.8,0.9
		l-1.4,1.1l-0.6-0.6l-0.3-0.1l-3.3,2l-0.8,0.1l-0.9-0.3l-0.4,0.1l-0.3,0.2l-0.1,0.3l0.2,1.2l-0.6,0.7l-0.4,0.3l-1.9,0.5l-1.9,1
		l-0.8,0.1l-2.3-1.1l-1,1.3l-1,0.7l-1.2,1.2l-0.4,0.1l-1.2-0.1l-1.7-0.8l-1.4-0.4l-0.9-0.5l-0.8-0.7l-0.7-1.3l-0.7-0.8l0.1-0.8
		l-0.2-0.7l-2.4-0.3l-3.3-2l-2.3-2.7l-0.8-1.3l-0.8-0.8l-0.3-0.9l-2.1-2.2l-0.6-1l-0.1-0.7l0.4-1.4l0-0.6l-0.7-3.1l-0.5-0.5l2,0.4
		l1.8-0.7l1-1.1l0.2-1.6l0.5-1l0.8-0.4l0.3-0.7l-0.4-1.6l-0.4-1.1l0.4-1.7l1.1-2.7l1-1.2l0.9,0.3l0.6,0.7l0.4,1.1l0.2,0.1l0.2-0.1
		l0.5-0.9l0.5-0.4l0.2,0l0.2-0.1l0-0.5l-0.7-1.4l-0.1-0.9l0.5-0.4l0.4-1.1l0.3-1.8l0.6-1l0.8-0.2l0.8-0.9l0.7-1.5l0.8-0.5l0.9,0.5
		l1-0.1l1.1-0.7l1.8-1.8l2.5-2.9l1.1-2.2l-0.2-1.5l0.5-3.8l1.2-6.2l0.4-3.9l-0.3-1.7l-0.5-1.3l-0.8-1l0.2-0.9l1.7-1.2l0.4,2.4
		l0.4,2.4l0.4,2.4l0.4,2.4l0.4,2.4l0.4,2.4l0.4,2.4l0.4,2.4l2.1-0.4l2.1-0.4l2.1-0.4l2.1-0.4l2.1-0.4l2.1-0.4l2.1-0.4L764.8,232z"/>
	<path id="US-WY" class="st0" d="M369.2,181.2l-0.4,5.3l-0.5,5.3l-0.5,5.3l-0.4,5.3l-0.5,5.3l-0.4,5.3l-0.5,5.3l-0.5,5.3l-5-0.5
		l-5-0.5l-5-0.5l-5-0.5l-5-0.5l-5-0.5l-5-0.6l-5-0.6l-5-0.6l-5-0.6l-5-0.6l-5-0.6l-5-0.7l-5-0.7l-5-0.7l-5-0.7l-4-0.6l-4-0.6l-4-0.6
		l-4-0.6l-4-0.6l-4-0.6l-4-0.7l-4-0.7l0.4-2.6l0.4-2.6l0.4-2.6l0.4-2.6l0.4-2.6l0.4-2.6l0.4-2.6l0.4-2.6l0.6-3.3l0.5-3.3l0.5-3.3
		l0.5-3.3l0.5-3.3l0.6-3.3l0.5-3.3l0.5-3.3l0.6-3.3l0.5-3.3l0.5-3.3l0.6-3.3l0.5-3.3l0.5-3.3l0.6-3.3l0.5-3.3l0.4-2.7l0.4-2.7
		l0.4-2.7l0.4-2.7l3.3,0.5l3.3,0.5l3.3,0.5l3.3,0.5l3.3,0.5l3.3,0.5l3.3,0.5l3.3,0.5l3.3,0.5l3.3,0.5l3.3,0.5l3.3,0.5l3.3,0.4
		l3.3,0.4l3.3,0.4l3.3,0.4l3.3,0.4l3.3,0.4l3.3,0.4l3.3,0.4l3.3,0.4l3.3,0.4l3.3,0.4l3.3,0.4l3.3,0.3l3.3,0.4l3.3,0.3l3.3,0.3
		l3.3,0.3l3.3,0.3l3.3,0.3l3.3,0.3l-0.4,5.3l-0.5,5.3l-0.5,5.3l-0.5,5.3l-0.4,5.3l-0.5,5.3l-0.4,5.3L369.2,181.2z"/>
</g>
</svg>
